<svg xmlns="http://www.w3.org/2000/svg" fill="none" className="mainSVG" viewBox="10 0 800 506"><path stroke="#A7D5F2" strokeMiterlimit="10" d="m756.275 337.836 12.281 105.683M766.584 423.289l-5.565-5.272"/><path fill="#011140" stroke="#A7D5F2" strokeMiterlimit="10" d="M762.753 419.595a5.196 5.196 0 0 0-.613-2.34 5.796 5.796 0 0 0-1.64-1.9c-1.431-1.143-8.946-3.987-9.667-1.609-.777 2.591 6.918 7.671 11.92 5.849Z"/><path stroke="#A7D5F2" strokeMiterlimit="10" strokeWidth=".5" d="m762.709 419.595-7.166-4.007"/><path stroke="#A7D5F2" strokeMiterlimit="10" d="m767.981 435.312-5.577-5.283"/><path fill="#011140" stroke="#A7D5F2" strokeMiterlimit="10" d="M764.105 431.618a5.21 5.21 0 0 0-.614-2.344 5.791 5.791 0 0 0-1.639-1.906c-1.431-1.144-8.946-3.988-9.667-1.609-.698 2.59 6.963 7.67 11.92 5.859Z"/><path stroke="#A7D5F2" strokeMiterlimit="10" strokeWidth=".5" d="m764.105 431.618-7.166-4.008"/><path stroke="#A7D5F2" strokeMiterlimit="10" d="m763.17 393.961-5.566-5.272"/><path fill="#011140" stroke="#A7D5F2" strokeMiterlimit="10" d="M759.294 390.268a5.203 5.203 0 0 0-.614-2.34 5.798 5.798 0 0 0-1.639-1.901c-1.431-1.143-9.014-3.987-9.667-1.609-.732 2.591 6.963 7.671 11.92 5.85Z"/><path stroke="#A7D5F2" strokeMiterlimit="10" strokeWidth=".5" d="m759.295 390.268-7.154-4.008"/><path stroke="#A7D5F2" strokeMiterlimit="10" d="m764.568 405.984-5.566-5.283"/><path fill="#011140" stroke="#A7D5F2" strokeMiterlimit="10" d="M760.691 402.29a5.211 5.211 0 0 0-.615-2.344 5.81 5.81 0 0 0-1.638-1.906c-1.431-1.144-9.013-3.987-9.667-1.599-.732 2.58 6.963 7.661 11.92 5.849Z"/><path stroke="#A7D5F2" strokeMiterlimit="10" strokeWidth=".5" d="m760.691 402.29-7.154-4.007"/><path stroke="#A7D5F2" strokeMiterlimit="10" d="m760.906 374.44-5.566-5.283"/><path fill="#011140" stroke="#A7D5F2" strokeMiterlimit="10" d="M757.03 370.746a5.183 5.183 0 0 0-.613-2.34 5.776 5.776 0 0 0-1.64-1.9c-1.431-1.154-8.946-3.987-9.656-1.609-.743 2.58 6.952 7.661 11.909 5.849Z"/><path stroke="#A7D5F2" strokeMiterlimit="10" strokeWidth=".5" d="m757.03 370.746-7.154-4.007"/><path stroke="#A7D5F2" strokeMiterlimit="10" strokeWidth="2" d="m758.63 354.838-5.566-5.283"/><path fill="#011140" stroke="#A7D5F2" strokeMiterlimit="10" d="M754.754 351.164a5.19 5.19 0 0 0-.613-2.34 5.776 5.776 0 0 0-1.64-1.9c-1.431-1.144-8.946-3.988-9.667-1.609-.732 2.56 6.963 7.64 11.92 5.849Z"/><path stroke="#A7D5F2" strokeMiterlimit="10" strokeWidth=".5" d="m754.754 351.134-7.166-4.008"/><path stroke="#A7D5F2" strokeMiterlimit="10" strokeWidth="2" d="m765.648 416.185 4.225-6.204"/><path fill="#011140" stroke="#A7D5F2" strokeMiterlimit="10" d="M768.59 411.884a5.082 5.082 0 0 1 .045-2.399 5.422 5.422 0 0 1 1.149-2.165c1.127-1.387 7.887-5.556 9.081-3.36 1.352 2.348-5.014 8.744-10.275 7.924Z"/><path stroke="#A7D5F2" strokeMiterlimit="10" strokeWidth=".5" d="m768.59 411.844 6.444-5.536"/><path stroke="#A7D5F2" strokeMiterlimit="10" d="m761.965 384.56 4.236-6.204"/><path fill="#011140" stroke="#A7D5F2" strokeMiterlimit="10" d="M764.905 380.218a5.118 5.118 0 0 1 .065-2.401 5.47 5.47 0 0 1 1.163-2.163c1.127-1.386 7.887-5.556 9.092-3.359 1.318 2.388-5.047 8.784-10.32 7.923Z"/><path stroke="#A7D5F2" strokeMiterlimit="10" strokeWidth=".5" d="m764.905 380.219 6.456-5.536"/><path stroke="#A7D5F2" strokeMiterlimit="10" d="m760.354 370.655 4.236-6.193"/><path fill="#011140" stroke="#A7D5F2" strokeMiterlimit="10" d="M763.294 366.344a5.109 5.109 0 0 1 .05-2.393 5.437 5.437 0 0 1 1.145-2.161c1.126-1.386 7.886-5.566 9.081-3.37 1.352 2.358-5.003 8.754-10.276 7.924Z"/><path stroke="#A7D5F2" strokeMiterlimit="10" strokeWidth=".5" d="m763.294 366.314 6.445-5.526"/><path stroke="#A7D5F2" strokeMiterlimit="10" d="m757.987 350.284 4.237-6.204"/><path fill="#011140" stroke="#A7D5F2" strokeMiterlimit="10" d="M760.928 345.942a5.13 5.13 0 0 1 .05-2.398 5.443 5.443 0 0 1 1.145-2.166c1.126-1.387 7.886-5.556 9.081-3.36 1.352 2.388-5.003 8.784-10.276 7.924Z"/><path stroke="#A7D5F2" strokeMiterlimit="10" strokeWidth=".5" d="m760.928 345.942 6.444-5.536"/><path fill="#011140" stroke="#A7D5F2" strokeMiterlimit="10" d="M756.173 337.249a5.109 5.109 0 0 1 .05-2.393 5.447 5.447 0 0 1 1.144-2.161c1.127-1.386 7.887-5.566 9.081-3.37 1.364 2.388-5.002 8.784-10.275 7.924Z"/><path stroke="#A7D5F2" strokeMiterlimit="10" strokeWidth=".5" d="m756.174 337.249 6.444-5.526"/><path fill="#011140" stroke="#A7D5F2" strokeMiterlimit="10" d="M756.546 337.492a6.963 6.963 0 0 1-2.649-.294 6.442 6.442 0 0 1-2.275-1.254c-1.408-1.154-5.329-7.58-2.772-8.461 2.783-.961 9.205 5.394 7.696 10.009Z"/><path stroke="#A7D5F2" strokeMiterlimit="10" strokeWidth=".5" d="m756.545 337.492-5.441-6.335"/><path stroke="#A7D5F2" strokeMiterlimit="10" d="m788.666 352.389-12.213 105.693M779.157 437.923l-4.236-6.204"/><path fill="#011140" stroke="#A7D5F2" strokeMiterlimit="10" d="M776.205 433.581a5.061 5.061 0 0 0-.044-2.394 5.393 5.393 0 0 0-1.15-2.16c-1.127-1.386-7.887-5.556-9.081-3.36-1.352 2.409 5.014 8.785 10.275 7.914Z"/><path stroke="#A7D5F2" strokeMiterlimit="10" strokeWidth=".5" d="m776.206 433.581-6.084-5.242"/><path stroke="#A7D5F2" strokeMiterlimit="10" d="m782.538 408.595-4.236-6.204"/><path fill="#011140" stroke="#A7D5F2" strokeMiterlimit="10" d="M779.653 404.254a5.06 5.06 0 0 0-.044-2.394 5.387 5.387 0 0 0-1.15-2.16c-1.127-1.387-7.887-5.566-9.081-3.37-1.408 2.398 4.957 8.784 10.275 7.924Z"/><path stroke="#A7D5F2" strokeMiterlimit="10" strokeWidth=".5" d="m779.597 404.254-6.084-5.243"/><path stroke="#A7D5F2" strokeMiterlimit="10" d="m781.152 420.607-4.236-6.193"/><path fill="#011140" stroke="#A7D5F2" strokeMiterlimit="10" d="M778.211 416.276a5.13 5.13 0 0 0-.049-2.398 5.468 5.468 0 0 0-1.145-2.166c-1.127-1.386-7.887-5.556-9.093-3.36-1.352 2.388 4.969 8.784 10.287 7.924Z"/><path stroke="#A7D5F2" strokeMiterlimit="10" strokeWidth=".5" d="m778.211 416.276-6.084-5.242"/><path stroke="#A7D5F2" strokeMiterlimit="10" d="m784.803 389.063-4.237-6.193"/><path fill="#011140" stroke="#A7D5F2" strokeMiterlimit="10" d="M781.906 384.732a5.082 5.082 0 0 0-.045-2.399 5.422 5.422 0 0 0-1.149-2.165c-1.127-1.387-7.887-5.556-9.081-3.36-1.408 2.388 4.957 8.764 10.275 7.924Z"/><path stroke="#A7D5F2" strokeMiterlimit="10" strokeWidth=".5" d="m781.851 384.732-6.084-5.242"/><path stroke="#A7D5F2" strokeMiterlimit="10" d="m787.066 369.461-4.236-6.204"/><path fill="#011140" stroke="#A7D5F2" strokeMiterlimit="10" d="M784.16 365.119a5.061 5.061 0 0 0-.044-2.394 5.4 5.4 0 0 0-1.15-2.16c-1.127-1.386-7.887-5.566-9.081-3.369-1.397 2.388 4.969 8.784 10.275 7.923Z"/><path stroke="#A7D5F2" strokeMiterlimit="10" strokeWidth=".5" d="m784.115 365.12-6.084-5.243"/><path stroke="#A7D5F2" strokeMiterlimit="10" d="m779.867 430.788 5.566-5.283"/><path fill="#011140" stroke="#A7D5F2" strokeMiterlimit="10" d="M783.743 427.064a5.22 5.22 0 0 1 .617-2.339 5.809 5.809 0 0 1 1.636-1.901c1.431-1.144 8.946-3.988 9.667-1.609.733 2.601-6.996 7.691-11.92 5.849Z"/><path stroke="#A7D5F2" strokeMiterlimit="10" strokeWidth=".5" d="m783.743 427.084 7.571-4.22"/><path stroke="#A7D5F2" strokeMiterlimit="10" d="m783.518 399.163 5.565-5.283"/><path fill="#011140" stroke="#A7D5F2" strokeMiterlimit="10" d="M787.394 395.459c.015-.81.224-1.608.613-2.34a5.776 5.776 0 0 1 1.64-1.9c1.419-1.154 8.946-3.997 9.655-1.619.744 2.59-6.951 7.671-11.908 5.859Z"/><path stroke="#A7D5F2" strokeMiterlimit="10" strokeWidth=".5" d="m787.394 395.459 7.582-4.22"/><path stroke="#A7D5F2" strokeMiterlimit="10" strokeWidth="2" d="m785.129 385.258 5.566-5.282"/><path fill="#011140" stroke="#A7D5F2" strokeMiterlimit="10" d="M789.005 381.524a5.169 5.169 0 0 1 .611-2.341 5.758 5.758 0 0 1 1.642-1.899c1.431-1.144 8.946-3.988 9.667-1.609.732 2.611-6.963 7.701-11.92 5.849Z"/><path stroke="#A7D5F2" strokeMiterlimit="10" strokeWidth=".5" d="m789.005 381.554 7.571-4.22"/><path stroke="#A7D5F2" strokeMiterlimit="10" d="m787.483 364.887 5.566-5.283"/><path fill="#011140" stroke="#A7D5F2" strokeMiterlimit="10" d="M791.359 361.183c.014-.811.222-1.61.611-2.342a5.746 5.746 0 0 1 1.643-1.898c1.431-1.154 8.945-3.998 9.655-1.62.744 2.591-6.951 7.671-11.909 5.86Z"/><path stroke="#A7D5F2" strokeMiterlimit="10" strokeWidth=".5" d="m791.359 361.183 7.572-4.22"/><path fill="#011140" stroke="#A7D5F2" strokeMiterlimit="10" d="M788.667 351.802a5.203 5.203 0 0 1 .614-2.34 5.798 5.798 0 0 1 1.639-1.901c1.431-1.153 8.946-3.997 9.667-1.619.766 2.591-6.929 7.671-11.92 5.86Z"/><path stroke="#A7D5F2" strokeMiterlimit="10" strokeWidth=".5" d="m788.7 351.802 7.571-4.22"/><path fill="#011140" stroke="#A7D5F2" strokeMiterlimit="10" d="M789.005 352.105a6.79 6.79 0 0 1-2.55-.771 6.064 6.064 0 0 1-1.957-1.658c-1.127-1.386-3.481-8.399-.777-8.794 2.996-.425 7.819 6.983 5.284 11.223Z"/><path stroke="#A7D5F2" strokeMiterlimit="10" strokeWidth=".5" d="m789.005 352.105-3.876-7.215"/><path stroke="#A7D5F2" strokeMiterlimit="10" d="M774.674 309.358v133.645M774.797 422.905l-4.935-5.769"/><path fill="#011140" stroke="#A7D5F2" strokeMiterlimit="10" d="M771.361 418.867a5.11 5.11 0 0 0-.323-2.378 5.591 5.591 0 0 0-1.389-2.045c-1.285-1.275-8.439-4.797-9.419-2.499-1.071 2.499 5.994 8.268 11.131 6.922Z"/><path stroke="#A7D5F2" strokeMiterlimit="10" strokeWidth=".5" d="m771.361 418.867-6.647-4.655"/><path stroke="#A7D5F2" strokeMiterlimit="10" d="m774.797 397.797-4.935-5.779"/><path fill="#011140" stroke="#A7D5F2" strokeMiterlimit="10" d="M771.361 393.749a5.11 5.11 0 0 0-.323-2.378 5.591 5.591 0 0 0-1.389-2.045c-1.285-1.275-8.439-4.796-9.419-2.499-1.071 2.499 5.994 8.268 11.131 6.922Z"/><path stroke="#A7D5F2" strokeMiterlimit="10" d="m771.361 393.749-6.647-4.645M774.797 368.307l-4.935-5.768"/><path fill="#011140" stroke="#A7D5F2" strokeMiterlimit="10" d="M771.361 364.32a5.15 5.15 0 0 0-.323-2.382 5.625 5.625 0 0 0-1.389-2.051c-1.285-1.265-8.439-4.796-9.419-2.499-1.071 2.449 5.994 8.227 11.131 6.932Z"/><path stroke="#A7D5F2" strokeMiterlimit="10" strokeWidth=".5" d="m771.361 364.269-6.647-4.655"/><path stroke="#A7D5F2" strokeMiterlimit="10" d="m774.797 348.674-4.935-5.768"/><path fill="#011140" stroke="#A7D5F2" strokeMiterlimit="10" d="M771.361 344.637a5.107 5.107 0 0 0-.323-2.378 5.591 5.591 0 0 0-1.389-2.045c-1.285-1.275-8.439-4.807-9.419-2.5-1.071 2.5 5.994 8.269 11.131 6.923Z"/><path stroke="#A7D5F2" strokeMiterlimit="10" strokeWidth=".5" d="m771.361 344.637-6.647-4.656"/><path stroke="#A7D5F2" strokeMiterlimit="10" d="m774.797 328.961-4.935-5.769"/><path fill="#011140" stroke="#A7D5F2" strokeMiterlimit="10" d="M771.361 324.923a5.11 5.11 0 0 0-.323-2.378 5.591 5.591 0 0 0-1.389-2.045c-1.285-1.275-8.439-4.807-9.419-2.499-1.071 2.499 5.994 8.268 11.131 6.922Z"/><path stroke="#A7D5F2" strokeMiterlimit="10" d="m771.361 324.923-6.647-4.655M774.685 430.576l4.923-5.769"/><path fill="#011140" stroke="#A7D5F2" strokeMiterlimit="10" d="M778.11 426.538a5.11 5.11 0 0 1 .323-2.378 5.591 5.591 0 0 1 1.389-2.045c1.285-1.275 8.439-4.807 9.419-2.499 1.082 2.499-5.994 8.268-11.131 6.922Z"/><path stroke="#A7D5F2" strokeMiterlimit="10" strokeWidth=".5" d="m778.109 426.538 7.053-4.908"/><path stroke="#A7D5F2" strokeMiterlimit="10" d="m774.685 390.632 4.923-5.768"/><path fill="#011140" stroke="#A7D5F2" strokeMiterlimit="10" d="M778.11 386.584a5.11 5.11 0 0 1 .323-2.378 5.58 5.58 0 0 1 1.389-2.044c1.285-1.276 8.439-4.807 9.419-2.5 1.082 2.51-5.994 8.278-11.131 6.922Z"/><path stroke="#A7D5F2" strokeMiterlimit="10" strokeWidth=".5" d="m778.109 386.594 7.053-4.908"/><path stroke="#A7D5F2" strokeMiterlimit="10" d="m774.685 370.918 4.923-5.768"/><path fill="#011140" stroke="#A7D5F2" strokeMiterlimit="10" d="M778.11 366.88a5.103 5.103 0 0 1 .323-2.377 5.591 5.591 0 0 1 1.389-2.045c1.285-1.275 8.439-4.807 9.419-2.51 1.082 2.51-5.994 8.278-11.131 6.932Z"/><path stroke="#A7D5F2" strokeMiterlimit="10" strokeWidth=".5" d="m778.109 366.88 7.053-4.908"/><path stroke="#A7D5F2" strokeMiterlimit="10" d="m774.685 344.859 4.923-5.768"/><path fill="#011140" stroke="#A7D5F2" strokeMiterlimit="10" d="M778.11 340.821a5.103 5.103 0 0 1 .323-2.377 5.591 5.591 0 0 1 1.389-2.045c1.285-1.275 8.439-4.807 9.419-2.5 1.082 2.5-5.994 8.268-11.131 6.922Z"/><path stroke="#A7D5F2" strokeMiterlimit="10" strokeWidth=".5" d="m778.109 340.821 7.053-4.908"/><path stroke="#A7D5F2" strokeMiterlimit="10" d="m774.685 324.376 4.923-5.778"/><path fill="#011140" stroke="#A7D5F2" strokeMiterlimit="10" d="M778.11 320.339a5.14 5.14 0 0 1 .322-2.383 5.616 5.616 0 0 1 1.39-2.05c1.285-1.275 8.439-4.797 9.419-2.5 1.082 2.5-5.994 8.278-11.131 6.933Z"/><path stroke="#A7D5F2" strokeMiterlimit="10" strokeWidth=".5" d="m778.109 320.339 7.053-4.909"/><path fill="#011140" stroke="#A7D5F2" strokeMiterlimit="10" d="M774.392 311.251a5.156 5.156 0 0 1 .323-2.383 5.63 5.63 0 0 1 1.389-2.05c1.284-1.265 8.439-4.797 9.419-2.499 1.07 2.499-5.994 8.278-11.131 6.932Z"/><path stroke="#A7D5F2" strokeMiterlimit="10" strokeWidth=".5" d="m774.392 311.251 7.041-4.909"/><path fill="#011140" stroke="#A7D5F2" strokeMiterlimit="10" d="M774.73 311.524a6.947 6.947 0 0 1-2.603-.555 6.32 6.32 0 0 1-2.118-1.469c-1.273-1.275-4.427-8.035-1.78-8.673 2.884-.678 8.529 6.244 6.501 10.697Z"/><path stroke="#A7D5F2" strokeMiterlimit="10" strokeWidth=".5" d="m774.73 311.524-4.687-6.821"/><path fill="#A7D5F2" stroke="#A7D5F2" strokeMiterlimit="10" d="M780.791 477.664H765.04l-1.972-35.744h19.694l-1.971 35.744Z"/><path stroke="#A7D5F2" strokeLinecap="round" strokeLinejoin="round" d="M167.423 55.66H63.093v63.412h104.33V55.66ZM277.938 55.66h-104.33v63.412h104.33V55.66ZM430.106 55.66h-104.33v63.412h104.33V55.66ZM540.631 55.66H436.302v63.412h104.329V55.66ZM692.799 55.66H588.47v63.412h104.329V55.66ZM803.314 55.66h-104.33v63.412h104.33V55.66Z"/><path fill="#A7D5F2" stroke="#187CBA" strokeLinecap="round" strokeLinejoin="round" d="M551.989 386.483h-80.963v77.812h80.963v-77.812Z"/><path fill="#187CBA" stroke="#187CBA" strokeMiterlimit="10" d="M484.749 386.483h-7.357v28.305h7.357v-28.305Z"/><path fill="#A7D5F2" stroke="#187CBA" strokeLinecap="round" strokeLinejoin="round" d="M632.883 386.483h-80.962v77.812h80.962v-77.812Z"/><path fill="#187CBA" stroke="#187CBA" strokeMiterlimit="10" d="M565.643 386.483h-7.357v28.305h7.357v-28.305Z"/><path fill="#A7D5F2" stroke="#187CBA" strokeLinecap="round" strokeLinejoin="round" d="M551.989 308.164h-80.963v77.813h80.963v-77.813Z"/><path fill="#187CBA" stroke="#187CBA" strokeMiterlimit="10" d="M484.749 308.164h-7.357v28.306h7.357v-28.306Z"/><path fill="#A7D5F2" stroke="#187CBA" strokeLinecap="round" strokeLinejoin="round" d="M632.883 308.164h-80.962v77.813h80.962v-77.813Z"/><path fill="#187CBA" stroke="#187CBA" strokeMiterlimit="10" d="M565.643 308.164h-7.357v28.306h7.357v-28.306Z"/><path fill="#A7D5F2" stroke="#187CBA" strokeLinecap="round" strokeLinejoin="round" d="M641.265 473.95H467.928v3.714h173.337v-3.714ZM641.265 460.47H467.928v3.714h173.337v-3.714ZM484.479 464.295h-13.453v9.432h13.453v-9.432ZM559.098 464.295h-13.452v9.432h13.452v-9.432ZM633.717 464.295h-13.452v9.432h13.452v-9.432ZM375.102 386.483H294.14v77.812h80.962v-77.812Z"/><path fill="#187CBA" stroke="#187CBA" strokeMiterlimit="10" d="M307.862 386.483h-7.357v28.305h7.357v-28.305Z"/><path fill="#A7D5F2" stroke="#187CBA" strokeLinecap="round" strokeLinejoin="round" d="M455.996 386.483h-80.962v77.812h80.962v-77.812Z"/><path fill="#187CBA" stroke="#187CBA" strokeMiterlimit="10" d="M388.757 386.483h-7.358v28.305h7.358v-28.305Z"/><path fill="#A7D5F2" stroke="#187CBA" strokeLinecap="round" strokeLinejoin="round" d="M375.102 308.164H294.14v77.813h80.962v-77.813Z"/><path fill="#187CBA" stroke="#187CBA" strokeMiterlimit="10" d="M307.862 308.164h-7.357v28.306h7.357v-28.306Z"/><path fill="#A7D5F2" stroke="#187CBA" strokeLinecap="round" strokeLinejoin="round" d="M455.996 308.164h-80.962v77.813h80.962v-77.813Z"/><path fill="#187CBA" stroke="#187CBA" strokeMiterlimit="10" d="M388.757 308.164h-7.358v28.306h7.358v-28.306Z"/><path fill="#A7D5F2" stroke="#187CBA" strokeLinecap="round" strokeLinejoin="round" d="M464.379 473.95H291.041v3.714h173.338v-3.714ZM464.379 460.47H291.041v3.714h173.338v-3.714ZM307.592 464.295H294.14v9.432h13.452v-9.432ZM382.211 464.295h-13.452v9.432h13.452v-9.432ZM456.83 464.295h-13.452v9.432h13.452v-9.432ZM198.215 386.483h-80.962v77.812h80.962v-77.812Z"/><path fill="#187CBA" stroke="#187CBA" strokeMiterlimit="10" d="M130.975 386.483h-7.357v28.305h7.357v-28.305Z"/><path fill="#A7D5F2" stroke="#187CBA" strokeLinecap="round" strokeLinejoin="round" d="M279.11 386.483h-80.963v77.812h80.963v-77.812Z"/><path fill="#187CBA" stroke="#187CBA" strokeMiterlimit="10" d="M211.87 386.483h-7.357v28.305h7.357v-28.305Z"/><path fill="#A7D5F2" stroke="#187CBA" strokeLinecap="round" strokeLinejoin="round" d="M198.215 308.164h-80.962v77.813h80.962v-77.813Z"/><path fill="#187CBA" stroke="#187CBA" strokeMiterlimit="10" d="M130.975 308.164h-7.357v28.306h7.357v-28.306Z"/><path fill="#A7D5F2" stroke="#187CBA" strokeLinecap="round" strokeLinejoin="round" d="M279.11 308.164h-80.963v77.813h80.963v-77.813Z"/><path fill="#187CBA" stroke="#187CBA" strokeMiterlimit="10" d="M211.87 308.164h-7.357v28.306h7.357v-28.306Z"/><path fill="#A7D5F2" stroke="#187CBA" strokeLinecap="round" strokeLinejoin="round" d="M198.215 231.252h-80.962v77.813h80.962v-77.813Z"/><path fill="#187CBA" stroke="#187CBA" strokeMiterlimit="10" d="M130.975 231.252h-7.357v28.306h7.357v-28.306Z"/><path fill="#A7D5F2" stroke="#187CBA" strokeLinecap="round" strokeLinejoin="round" d="M279.11 231.252h-80.963v77.813h80.963v-77.813Z"/><path fill="#187CBA" stroke="#187CBA" strokeMiterlimit="10" d="M211.87 231.252h-7.357v28.306h7.357v-28.306Z"/><path fill="#A7D5F2" stroke="#187CBA" strokeLinecap="round" strokeLinejoin="round" d="M287.492 473.95H114.154v3.714h173.338v-3.714ZM287.492 460.47H114.154v3.714h173.338v-3.714ZM130.705 464.295h-13.452v9.432h13.452v-9.432ZM205.324 464.295h-13.452v9.432h13.452v-9.432ZM279.944 464.295h-13.453v9.432h13.453v-9.432Z"/><path fill="#E8E8E8" stroke="#263238" strokeLinecap="round" strokeLinejoin="round" d="M751.96 27.476H444.29V243.71h307.67V27.476Z" className="animation-float"/><path fill="#263238" stroke="#263238" strokeLinecap="round" strokeLinejoin="round" d="M751.96 27.476H444.29v9.786h307.67v-9.786Z" className="animation-float"/><path fill="#A7D5F2" stroke="#263238" strokeLinecap="round" strokeLinejoin="round" d="M727.084 31.949a2.33 2.33 0 0 0-.444-1.41 2.742 2.742 0 0 0-1.244-.946 3.085 3.085 0 0 0-1.62-.162 2.91 2.91 0 0 0-1.445.678c-.396.35-.667.798-.778 1.287-.112.489-.058.996.154 1.458.211.461.571.855 1.033 1.132a3.023 3.023 0 0 0 1.561.422 2.966 2.966 0 0 0 1.949-.72c.52-.46.819-1.084.834-1.74ZM736.841 31.949a2.326 2.326 0 0 0-.441-1.404 2.734 2.734 0 0 0-1.235-.946 3.085 3.085 0 0 0-1.612-.17 2.918 2.918 0 0 0-1.445.663 2.447 2.447 0 0 0-.791 1.273c-.118.486-.072.992.131 1.454.202.462.553.86 1.008 1.143.455.282.992.438 1.545.446.74.01 1.453-.242 1.986-.703.532-.46.839-1.092.854-1.756ZM746.496 31.949a2.326 2.326 0 0 0-.443-1.408c-.3-.42-.733-.749-1.242-.947a3.087 3.087 0 0 0-1.619-.163 2.909 2.909 0 0 0-1.445.675 2.449 2.449 0 0 0-.781 1.284 2.28 2.28 0 0 0 .149 1.457c.21.461.568.856 1.029 1.134.46.278 1.003.427 1.558.427.731 0 1.433-.257 1.956-.717.522-.46.823-1.085.838-1.742Z" className="animation-float"/><path fill="#D9D9D9" stroke="#263238" strokeLinecap="round" strokeLinejoin="round" d="M564.809 72.145h-99.822c-2.172 0-3.932 1.582-3.932 3.532v12.701c0 1.95 1.76 3.532 3.932 3.532h99.822c2.172 0 3.932-1.581 3.932-3.532v-12.7c0-1.951-1.76-3.532-3.932-3.532ZM515.371 216.538h-51.657c-1.469 0-2.659 1.069-2.659 2.388v12.356c0 1.32 1.19 2.389 2.659 2.389h51.657c1.469 0 2.659-1.069 2.659-2.389v-12.356c0-1.319-1.19-2.388-2.659-2.388Z" className="animation-float"/><path fill="#263238" stroke="#263238" strokeLinecap="round" strokeLinejoin="round" d="M585.822 216.538h-51.658c-1.469 0-2.659 1.069-2.659 2.388v12.356c0 1.32 1.19 2.389 2.659 2.389h51.658c1.468 0 2.658-1.069 2.658-2.389v-12.356c0-1.319-1.19-2.388-2.658-2.388Z" className="animation-float"/><path fill="#D9D9D9" stroke="#263238" strokeLinecap="round" strokeLinejoin="round" d="M733.009 104.803H464.987c-2.172 0-3.932 1.581-3.932 3.532v12.7c0 1.951 1.76 3.532 3.932 3.532h268.022c2.172 0 3.933-1.581 3.933-3.532v-12.7c0-1.951-1.761-3.532-3.933-3.532Z" className="animation-float"/><path fill="#A7D5F2" stroke="#263238" strokeLinecap="round" strokeLinejoin="round" d="M736.941 133.604H659.01v69.585h77.931v-69.585ZM652.25 133.604H461.055v69.585H652.25v-69.585Z" className="animation-float"/><path stroke="#263238" strokeLinecap="round" strokeLinejoin="round" d="M664.351 144.898h63.161M468.13 144.898h179.185M664.857 159.724h62.654M468.13 159.724h179.681M664.857 174.55h62.654M468.13 174.55h179.681M664.857 189.376h62.654M468.13 189.376h179.681" className="animation-float"/><path fill="#263238" d="M659.956 76.315c1.476 0 2.152.8 2.152 2.115v4.28c0 1.306-.676 2.106-2.152 2.106h-2.253v-8.501h2.253Zm0 7.64c.755 0 1.127-.424 1.127-1.204V78.38c0-.779-.36-1.204-1.127-1.204h-1.126v6.821l1.126-.04ZM664.147 83.105l-.36 1.71h-.98l1.814-8.5h1.532l1.803 8.5h-1.048l-.372-1.71h-2.389Zm.136-.82h2.106l-1.059-4.897-1.047 4.898ZM670.164 84.816v-7.64h-1.746v-.861h4.507v.86h-1.735v7.64h-1.026ZM677.059 80.08v.88h-2.309v3.036h2.839v.86h-3.842v-8.5h3.898v.86h-2.839v2.904l2.253-.04Z" className="animation-float"/><path fill="#A7D5F2" stroke="#263238" strokeLinecap="round" strokeLinejoin="round" d="M697.981 74.898h-14.872v13.359h14.872V74.898ZM717.946 74.898h-14.872v13.359h14.872V74.898ZM737.911 74.898h-14.872v13.359h14.872V74.898Z" className="animation-float"/><path stroke="#6C8E9F" strokeLinecap="round" strokeLinejoin="round" d="M543.302 251.502h52.288l51.027 51.764-34.848-51.764h58.08" className="animation-float"/><path stroke="#263238" strokeLinecap="round" strokeLinejoin="round" d="M534.187 251.502h4.326" className="animation-float"/><path fill="#fff" stroke="#263238" strokeLinecap="round" strokeLinejoin="round" d="M665.623 460.298s-5.329 7.701-6.85 8.906c-1.521 1.204-5.34 3.764-6.861 5.13-1.521 1.367.371 3.087 2.095 3.249 1.724.162 22.533 0 22.533 0s2.254-.334 2.479-1.366c.226-1.032 1.127-4.109-.191-6.841a15.044 15.044 0 0 1-1.341-5.829l.383-.85-.383-2.024-11.864-.375Z"/><path fill="#fff" stroke="#263238" strokeLinecap="round" strokeLinejoin="round" d="M654.008 477.583c1.712.172 22.533 0 22.533 0s2.253-.334 2.479-1.366c.32-1.272.486-2.572.495-3.876-3.143.84-6.332 2.024-6.332 2.024h-21.271c-1.532 1.336.428 3.056 2.096 3.218Z"/><path stroke="#263238" strokeLinecap="round" strokeLinejoin="round" d="m674.118 472.594-1.465 4.625"/><path fill="#fff" stroke="#263238" strokeLinecap="round" strokeLinejoin="round" d="M667.989 470.489a1.01 1.01 0 0 1-.349-.061c-3.954-1.579-6.535-.506-6.636-.455a.936.936 0 0 1-.645.032.822.822 0 0 1-.482-.386.69.69 0 0 1-.04-.577.79.79 0 0 1 .423-.435c.136-.061 3.38-1.458 8.079.425a.851.851 0 0 1 .276.17c.078.072.14.158.181.252a.693.693 0 0 1-.018.59.801.801 0 0 1-.321.327.93.93 0 0 1-.468.118Z"/><path fill="#fff" stroke="#263238" strokeLinecap="round" strokeLinejoin="round" d="M668.721 468.556c-.119 0-.238-.021-.349-.061-3.943-1.578-6.523-.506-6.636-.455a.95.95 0 0 1-.627.006.824.824 0 0 1-.463-.379.698.698 0 0 1-.052-.561.785.785 0 0 1 .387-.442c.135-.061 3.38-1.458 8.09.425.176.073.32.198.407.354a.697.697 0 0 1 .071.505.755.755 0 0 1-.295.434.913.913 0 0 1-.533.174Z"/><path fill="#fff" stroke="#263238" strokeLinecap="round" strokeLinejoin="round" d="M669.454 466.532a.968.968 0 0 1-.338-.061c-3.955-1.589-6.535-.506-6.647-.455a.95.95 0 0 1-.627.006.83.83 0 0 1-.464-.379.702.702 0 0 1-.052-.561.787.787 0 0 1 .388-.442c.135-.061 3.38-1.458 8.089.425.208.082.37.234.453.424a.703.703 0 0 1-.013.588.834.834 0 0 1-.321.33.958.958 0 0 1-.468.125ZM723.511 460.298s5.33 7.701 6.862 8.906c1.532 1.204 5.329 3.764 6.861 5.13 1.532 1.367-.383 3.087-2.107 3.249-1.723.162-22.533 0-22.533 0s-2.253-.334-2.467-1.366c-.214-1.032-1.127-4.109.18-6.841a15.062 15.062 0 0 0 1.341-5.829l-.383-.85.383-2.024 11.863-.375Z"/><path fill="#fff" stroke="#263238" strokeLinecap="round" strokeLinejoin="round" d="M735.128 477.583c-1.713.172-22.534 0-22.534 0s-2.253-.334-2.467-1.366a15.607 15.607 0 0 1-.507-3.876c3.144.84 6.332 2.024 6.332 2.024h21.238c1.566 1.336-.35 3.056-2.062 3.218Z"/><path stroke="#263238" strokeLinecap="round" strokeLinejoin="round" d="m715.017 472.594 1.476 4.625"/><path fill="#fff" stroke="#263238" strokeLinecap="round" strokeLinejoin="round" d="M721.145 470.489c.12 0 .239-.02.349-.061 3.955-1.579 6.535-.506 6.636-.455a.976.976 0 0 0 .983-.096.835.835 0 0 0 .217-.243.727.727 0 0 0 .06-.609.787.787 0 0 0-.167-.274.898.898 0 0 0-.27-.195c-.135-.061-3.38-1.457-8.09.425a.868.868 0 0 0-.276.17.77.77 0 0 0-.181.253.689.689 0 0 0 .018.589.784.784 0 0 0 .281.341c.128.088.28.141.44.155Z"/><path fill="#fff" stroke="#263238" strokeLinecap="round" strokeLinejoin="round" d="M720.413 468.556c.12 0 .238-.021.349-.061 3.955-1.578 6.524-.506 6.636-.455a.95.95 0 0 0 .627.006.827.827 0 0 0 .464-.379.698.698 0 0 0 .052-.561.787.787 0 0 0-.388-.442c-.135-.061-3.38-1.458-8.089.425a.82.82 0 0 0-.407.354.702.702 0 0 0-.072.505c.041.17.145.324.295.434a.918.918 0 0 0 .533.174Z"/><path fill="#fff" stroke="#263238" strokeLinecap="round" strokeLinejoin="round" d="M719.681 466.532c.116 0 .23-.021.338-.061 3.954-1.589 6.534-.506 6.647-.455a.95.95 0 0 0 .627.006.824.824 0 0 0 .463-.379.694.694 0 0 0 .052-.561.785.785 0 0 0-.387-.442c-.135-.061-3.38-1.458-8.09.425a.824.824 0 0 0-.407.354.702.702 0 0 0-.071.505c.041.17.145.324.295.434.15.111.338.172.533.174Z"/><path fill="#187CBA" stroke="#263238" strokeLinecap="round" strokeLinejoin="round" d="M726.452 455.572c-.158-.516-.327-1.012-.484-1.528a71.382 71.382 0 0 1-2.378-15.585l-7.886-102.141c.09 1.154-37.394.445-40.741.395-7.638-.102-7.154 1.75-7.346 8.399-.191 6.649-.36 13.581-.518 20.372a3189.05 3189.05 0 0 0-.755 78.116 20.66 20.66 0 0 1-.642 6.335c-.518 1.63-1.442 3.127-2.005 4.736a11.888 11.888 0 0 0 .18 8.4c4.962-.14 9.9.667 14.489 2.368 2.817-4.939 3.56-10.585 4.259-16.101l10.14-79.786 13.024 67.237 2.434 12.539c1.036 5.353 2.073 10.717 3.211 16.06a49.552 49.552 0 0 1 15.018-2.489c1.375-2.166.766-4.807 0-7.327Z"/><path fill="#575757" stroke="#263238" strokeLinecap="round" strokeLinejoin="round" d="M706.949 339.141H676.09v2.996h30.859v-2.996ZM715.715 339.141h-5.96v2.996h5.96v-2.996ZM673.285 339.141h-4.732v2.996h4.732v-2.996Z"/><path fill="#fff" stroke="#263238" strokeLinecap="round" strokeLinejoin="round" d="M695.727 339.455h-7.717v2.52h7.717v-2.52ZM657.85 284.048s-14.219 44.407-14.838 45.54c-.62 1.134 3.098.557 6.591 1.113 3.492.557 8.45-1.852 9.013-2.783.563-.931 5.768-15.352 5.768-15.352l-6.534-28.518Z"/><path stroke="#263238" strokeLinecap="round" strokeLinejoin="round" d="m658.491 298.439-.586-1.285M663.156 308.569l-3.977-8.643"/><path fill="#fff" d="m658.153 322.059 1.127.729-1.127-.729Z"/><path stroke="#263238" strokeLinecap="round" strokeLinejoin="round" d="m658.153 322.059 1.127.729"/><path fill="#fff" d="M647.653 320.055a36.507 36.507 0 0 1 4.687-1.275 22.952 22.952 0 0 1 4.507 2.429"/><path stroke="#263238" strokeLinecap="round" strokeLinejoin="round" d="M647.653 320.055a36.507 36.507 0 0 1 4.687-1.275 22.952 22.952 0 0 1 4.507 2.429"/><path fill="#fff" stroke="#263238" strokeLinecap="round" strokeLinejoin="round" d="M723.77 281.457s16.269 39.043 16.686 40.48a9.172 9.172 0 0 1 .62 4.048c-.214 1.66-3.087 2.773-3.707 2.773-.62 0-5.149-2.59-7.008-3.329-1.859-.739-7.413-3.147-7.413-3.147l-2.885-8.329 3.707-32.496Z"/><path stroke="#263238" strokeLinecap="round" strokeLinejoin="round" d="m724.684 294.128.271-.952M720.796 307.861l3.447-12.185M730.767 314.823l-6.647 3.734"/><path fill="#fff" stroke="#263238" strokeLinecap="round" strokeLinejoin="round" d="m681.645 270.599.676-9.402h13.328l2.704 10.464-8.946 7.125-7.762-8.187Z"/><path fill="#fff" stroke="#263238" strokeLinecap="round" strokeLinejoin="round" d="m681.127 272.947-23.277 11.132 10.14 48.11s-.823 4.443-.214 5.364a5.055 5.055 0 0 0 1.656 1.477h45.528s3.087-2.591 3.087-3.137v-2.439l5.769-51.997-23.097-8.217-19.592-.293Z"/><path fill="#263238" stroke="#263238" strokeLinecap="round" strokeLinejoin="round" d="m686.342 275.143 3.054 7.741-4.135 47.119 6.467 9.199 5.577-10.009-5.757-46.309 3.594-6.942-5.206-5.161-3.594 4.362Z"/><path fill="#fff" stroke="#263238" strokeLinecap="round" strokeLinejoin="round" d="m680.777 268.848-.541 5.161 4.845 7.104 3.594-7.752-7.898-4.513ZM691.908 273.523l2.873 8.228 5.938-8.551-2.704-5-6.107 5.323Z"/><path fill="#fff" stroke="#263238" strokeLinecap="round" strokeLinejoin="round" d="m706.668 328.09-.822-5.738 5.565.921-4.743 4.817Z" className="hand1"/><path fill="#fff" stroke="#263238" strokeLinecap="round" strokeLinejoin="round" d="M691.424 310.684a38.784 38.784 0 0 1-5.149-.931c-1.859-.547-3.087.192-1.645 1.852 1.442 1.66 6.591 2.408 7.211 2.408 0 0 1.025 4.807 3.91 5.739 1.44.512 2.96.823 4.506.92.788 1.015 1.963 1.735 3.301 2.024 1.859.193 6.174 2.966 6.174 2.966l2.062-4.261-4.506-3.329-4.507-7.034-4.327-1.295-3.729-1.083-3.301 2.024Z" className="hand1"/><path fill="#fff" d="m702.962 315.744-1.848 1.66c.125.484.193.98.203 1.477 0 .749-1.442.749-2.479.749a5.81 5.81 0 0 1-3.087-.749c-.823-.546-4.124-3.137-4.124-3.137l3.504-5.556-3.087 1.852a19.173 19.173 0 0 1-2.681 3.512c-1.228 1.113-1.645-.182-1.645-.182a21.82 21.82 0 0 1 2.062-4.443 44.676 44.676 0 0 1 3.706-3.147 9.026 9.026 0 0 1 2.468 0 21.157 21.157 0 0 1 5.565 2.408c1.142.74 2.006 1.774 2.479 2.965.12.424.188.858.203 1.296" className="hand1"/><path stroke="#263238" strokeLinecap="round" strokeLinejoin="round" d="m702.962 315.744-1.848 1.66c.125.484.193.98.203 1.477 0 .749-1.442.749-2.479.749a5.81 5.81 0 0 1-3.087-.749c-.823-.546-4.124-3.137-4.124-3.137l3.504-5.556-3.087 1.852a19.173 19.173 0 0 1-2.681 3.512c-1.228 1.113-1.645-.182-1.645-.182a21.82 21.82 0 0 1 2.062-4.443 44.676 44.676 0 0 1 3.706-3.147 9.026 9.026 0 0 1 2.468 0 21.157 21.157 0 0 1 5.565 2.408c1.142.74 2.006 1.774 2.479 2.965.12.424.188.858.203 1.296" className="hand1"/><path stroke="#263238" strokeLinecap="round" strokeLinejoin="round" d="M697.609 319.387a3.169 3.169 0 0 1-.214-2.216 50.152 50.152 0 0 1 3.099-4.443M695.751 318.831s-.327-.334-.699-.8c-.372-.465-.068-1.305-.068-1.913 0-1.113 3.031-5.606 3.031-5.606" className="hand1"/><path fill="#fff" d="M736.333 317.91s5.149 7.033 4.946 8.885c-.203 1.852-1.442 5.92-3.29 5.92-1.847 0-10.14-.931-15.863-1.852-5.724-.921-9.689-1.295-9.689-1.295l-5.769-1.478 3.921-8.51 3.74.698c1.79-.39 3.608-.661 5.442-.81 2.682-.192 11.616-2.115 11.616-2.115"/><path stroke="#263238" strokeLinecap="round" strokeLinejoin="round" d="M736.333 317.91s5.149 7.033 4.946 8.885c-.203 1.852-1.442 5.92-3.29 5.92-1.847 0-10.14-.931-15.863-1.852-5.724-.921-9.689-1.295-9.689-1.295l-5.769-1.478 3.921-8.51 3.74.698c1.79-.39 3.608-.661 5.442-.81 2.682-.192 11.616-2.115 11.616-2.115"/><path stroke="#263238" strokeLinecap="round" strokeLinejoin="round" d="M714.363 321.118c.097 2.074-.474 4.13-1.645 5.92"/><path fill="#fff" d="M645.693 323.648s-3.504 7.58-3.707 8.096c-.203.516.62 4.048 3.909 3.329 3.29-.718 20.81-2.398 23.075-2.773l5.768-.921h4.507c2.062 0 7.886 0 9.069-.374l4.946-1.478c1.229-.374 3.91-1.852 4.113-2.408.203-.557-.609-1.103-2.67-.921-2.062.182-8.45.364-8.45.364s5.768-2.024 7.627-2.773c1.859-.748 1.228-1.477 1.228-1.477a11.708 11.708 0 0 0-3.504.556c-1.442.557-15.649 2.217-15.649 2.217l-1.623-1.245c.466-1.065.744-2.188.823-3.329 0-1.478-.823-2.591-1.859-2.217-1.037.375-1.442 2.591-1.645 3.33-.203.738-1.239 3.694-1.239 3.694l-.406 1.669s-8.45-1.477-10.929-2.408c-2.478-.931-7.616-2.217-8.438-2.024-.823.192-2.479 2.226-2.885 3.147"/><path stroke="#263238" strokeLinecap="round" strokeLinejoin="round" d="M645.693 323.648s-3.504 7.58-3.707 8.096c-.203.516.62 4.048 3.909 3.329 3.29-.718 20.81-2.398 23.075-2.773l5.768-.921h4.507c2.062 0 7.886 0 9.069-.374l4.946-1.478c1.229-.374 3.91-1.852 4.113-2.408.203-.557-.609-1.103-2.67-.921-2.062.182-8.45.364-8.45.364s5.768-2.024 7.627-2.773c1.859-.748 1.228-1.477 1.228-1.477a11.708 11.708 0 0 0-3.504.556c-1.442.557-15.649 2.217-15.649 2.217l-1.623-1.245c.466-1.065.744-2.188.823-3.329 0-1.478-.823-2.591-1.859-2.217-1.037.375-1.442 2.591-1.645 3.33-.203.738-1.239 3.694-1.239 3.694l-.406 1.669s-8.45-1.477-10.929-2.408c-2.478-.931-7.616-2.217-8.438-2.024-.823.192-2.479 2.226-2.885 3.147"/><path stroke="#263238" strokeLinecap="round" strokeLinejoin="round" d="M664.091 326.299s-1.375 2.712.282 4.443"/><path fill="#011140" stroke="#263238" strokeLinecap="round" strokeLinejoin="round" d="m667.043 316.554 6.264 11.445c.113.207.287.381.504.503.218.122.468.186.724.185l22.872.213c.226.002.449-.046.649-.139.201-.093.373-.229.502-.396.129-.166.21-.359.237-.56a1.127 1.127 0 0 0-.081-.595l-4.98-11.658a1.268 1.268 0 0 0-.506-.574 1.49 1.49 0 0 0-.779-.216h-24.167a1.497 1.497 0 0 0-.674.153c-.207.102-.381.25-.505.43a1.13 1.13 0 0 0-.06 1.209Z"/><path fill="#fff" stroke="#263238" strokeLinecap="round" strokeLinejoin="round" d="M694.725 326.238c-2.062.183-8.45.365-8.45.365s5.769-2.024 7.628-2.773c1.859-.749 1.228-1.478 1.228-1.478-1.195.007-2.38.196-3.504.557-1.442.557-15.65 2.216-15.65 2.216l-1.645-1.285c.466-1.065.744-2.188.823-3.329 0-1.478-.823-2.591-1.859-2.217-1.037.375-1.442 2.591-1.645 3.33-.203.738-1.239 3.694-1.239 3.694l-.406 1.669-2.186-.394a5.86 5.86 0 0 0 .124 3.906c.226.641.493 1.269.8 1.882h.225l5.769-.921h4.507c2.061 0 7.886 0 9.069-.374l4.946-1.478c1.228-.374 3.91-1.852 4.113-2.408.202-.557-.586-1.144-2.648-.962Z"/><path stroke="#263238" strokeLinecap="round" strokeLinejoin="round" d="M696.618 327.453a42.353 42.353 0 0 1-4.89 1.821c-.608 0-7.886.739-7.886.739"/><path fill="#fff" stroke="#263238" strokeLinecap="round" strokeLinejoin="round" d="M663.821 463.111c.05-.179.114-.355.192-.526-.079.122-.17.233-.26.354l.068.172ZM676.236 246.766s-1.847-1.214-2.523.607c-.676 1.822-1.014 3.785.338 5.151 1.352 1.367 3.199 3.795 3.199 3.795l-1.014-9.553ZM701.643 246.766s1.848-1.214 2.524.607c.676 1.822 1.014 3.785-.338 5.151-1.352 1.367-3.2 3.795-3.2 3.795l1.014-9.553Z"/><path fill="#fff" stroke="#263238" strokeLinecap="round" strokeLinejoin="round" d="M678.151 259.841s6.76 8.147 8.18 8.572c1.634.486 4.631 1.012 5.994.243 1.363-.769 8.585-7.995 8.788-11.345.203-3.35 1.498-16.445-.609-19.754-2.106-3.309-6.545-8.096-18.263-4.655 0 0-11.176 3.188-4.09 26.939Z"/><path stroke="#263238" strokeLinecap="round" strokeLinejoin="round" d="M685.948 259.163a3.528 3.528 0 0 0 1.449 1.321 4.059 4.059 0 0 0 2.01.42c1.623 0 2.58-1.721 2.58-1.721M687.425 263.019s1.126 1.224 4.09 0M680.056 254.012s3.605 1.599 5.802-.071M692.596 254.012c2.055.471 4.212.446 6.253-.071M686.197 252.069a7.531 7.531 0 0 0-3.207-1.385 7.927 7.927 0 0 0-3.553.171M692.1 252.069a8.234 8.234 0 0 1 3.729-1.136 8.396 8.396 0 0 1 3.864.681"/><path fill="#fff" stroke="#263238" strokeLinecap="round" strokeLinejoin="round" d="M670.423 243.953s5.543 6.638 14.782 6.972c9.238.334 13.024-1.163 15.334-2.823 2.309-1.66 6.839-5.141 6.839-5.141a16.449 16.449 0 0 1-2.592-6.305c-.552-3.491-1.126-10.292-9.61-12.619-8.484-2.328-18.106.829-21.058 6.142-2.952 5.313-1.667 11.618-3.695 13.774Z"/><path fill="#fff" d="M680.022 243.821s-.248-7.681.755-10.393c1.003-2.712 6.535-4.969 6.535-4.969v-2.935"/><path stroke="#263238" strokeLinecap="round" strokeLinejoin="round" d="M680.022 243.821s-.248-7.681.755-10.393c1.003-2.712 6.535-4.969 6.535-4.969v-2.935"/><path fill="#fff" d="M696.37 243.821s1.25-7.904-1.262-11.527c-2.512-3.622-4.27-3.612-4.27-3.612v-3.158"/><path stroke="#263238" strokeLinecap="round" strokeLinejoin="round" d="M696.37 243.821s1.25-7.904-1.262-11.527c-2.512-3.622-4.27-3.612-4.27-3.612v-3.158"/><path fill="#263238" stroke="#263238" strokeLinecap="round" strokeLinejoin="round" d="M272.777 167.253h-23.108v298.196h23.108V167.253Z"/><path fill="#424242" stroke="#263238" strokeLinecap="round" strokeLinejoin="round" d="M283.987 230.109h-14.489c-3.43 0-6.72 1.224-9.146 3.402-2.425 2.179-3.788 5.134-3.788 8.215v8.825a4.658 4.658 0 0 0 .703 2.516 5.34 5.34 0 0 0 1.998 1.872 6.11 6.11 0 0 0 2.768.738 6.17 6.17 0 0 0 2.812-.592l24.787-11.497v-12.083l-5.645-1.396ZM283.987 394.68h-14.489c-3.43 0-6.72 1.224-9.146 3.403-2.425 2.179-3.788 5.134-3.788 8.215v8.824c-.013.88.229 1.747.703 2.516a5.342 5.342 0 0 0 1.998 1.873c.836.457 1.79.711 2.768.737a6.17 6.17 0 0 0 2.812-.592l24.787-11.496v-12.134l-5.645-1.346Z"/><path fill="#424242" stroke="#263238" strokeLinecap="round" strokeLinejoin="round" d="M251.382 159.461h-10.343v65.992h10.343v-65.992Z" className="animation-montaCarga"/><path fill="#263238" stroke="#263238" strokeLinecap="round" strokeLinejoin="round" d="M434.657 351.569h-79.881v32.88h79.881v-32.88Z"/><path stroke="#263238" strokeMiterlimit="10" strokeWidth="11" d="m288.189 408.848 34.465-160.007c1.953-9.078 7.255-17.3 15.049-23.339 7.795-6.039 17.627-9.543 27.911-9.946l78.484-3.036c3.836-.147 7.586 1.046 10.464 3.329 2.878 2.283 4.66 5.479 4.971 8.916l13.52 151.395"/><path fill="#263238" stroke="#263238" strokeMiterlimit="10" d="m349.829 412.592-82.472-10.848v35.389l87.723-19.349-5.251-5.192ZM343.893 332.25l-11.526-5.971-6.005 2.621-9.768-6.578-3.854 5.657 3.854 3.775-3.854 1.579 2.096 4.048s-8.754 5.343-10.85 19.815l-9.103-.314v28.69l11.571-4.746 4.202-.628s22.421-20.756 27.671-30.825c5.25-10.07 5.566-17.123 5.566-17.123Z"/><path fill="#fff" stroke="#263238" strokeLinecap="round" strokeLinejoin="round" d="m367.834 305.442-3.38 1.336-24.291-2.024s-6.354-3.35-10.084-2.024c-2.269.825-4.311 2.086-5.982 3.694 0 0 0 6.375 1.87 6.709 1.87.334 5.228-.668 5.228-.668l1.87-1.68s23.908 5.708 27.277 6.376c3.368.668 13.069-3.036 13.069-3.036l-5.577-8.683Z" className="animation-manejar"/><path fill="#187CBA" stroke="#263238" strokeLinecap="round" strokeLinejoin="round" d="M330.113 302.75c-2.269.825-4.311 2.086-5.982 3.694 0 0 0 6.375 1.87 6.709 1.87.334 5.228-.668 5.228-.668l1.87-1.68 7.019 1.67c.846-.817 1.352-1.872 1.431-2.985a23.07 23.07 0 0 0-.89-4.686h-.462s-6.366-3.39-10.084-2.054Z" className="animation-manejar"/><path stroke="#263238" strokeMiterlimit="10" d="m333.279 304.713-2.197.334s-3.301 3.299-3.301 4.443c0 1.143 2.017 1.811 2.749 1.487a14.289 14.289 0 0 0 2.254-1.649 5.465 5.465 0 0 0 3.109.83 9.157 9.157 0 0 0 3.673-.83" className="animation-manejar"/><path fill="#fff" stroke="#263238" strokeLinecap="round" strokeLinejoin="round" d="m385.77 288.997-20.55 14.765 8.213 10.403 12.337-8.055v-17.113Z" className="animation-manejar"/><path fill="#fff" stroke="#263238" strokeLinecap="round" strokeLinejoin="round" d="m365.22 303.762 7.098 13.419 4.484-4.028-6.355-13.419-5.227 4.028Z" className="animation-manejar"/><path fill="#fff" stroke="#263238" strokeLinecap="round" strokeLinejoin="round" d="m386.143 278.3-5.228 21.475s2.253 17.78 2.253 21.14c0 3.36-1.87 10.738-1.87 10.738l-.755 2.347s0 12.752 5.983 14.098c5.982 1.346 11.953 2.681 19.423 2.681 7.47 0 13.453-3.036 16.438-7.711 2.986-4.675 2.997-14.775 2.997-18.459 0-3.684-6.354-32.556-7.481-39.933-1.126-7.378-11.954-13.096-14.196-13.764-2.242-.668-17.564 7.388-17.564 7.388ZM376.396 247.221l-2.073 4.119s-5.554 3.654-4.27 4.615a20.224 20.224 0 0 1 2.073 1.741s-2.107 8.227-1.341 8.956a5.852 5.852 0 0 0 2.97 1.251 6.107 6.107 0 0 0 3.238-.472 4.633 4.633 0 0 1 2.081-.143c.695.112 1.348.38 1.897.781l5.464 9.31 16.81-9.108-2.254-7.701 4.169-5.667-28.764-7.682Z"/><path fill="#263238" stroke="#263238" strokeLinecap="round" strokeLinejoin="round" d="m400.97 260.56 4.168-5.668-23.063-5.94c-.563.901-1.554 2.712-.709 3.198a9.521 9.521 0 0 1 2.253 2.024s-.282 1.933 1.239 1.71c1.521-.222 3.854-2.985 6.265-1.376 2.411 1.609 2.49 3.42.732 4.847a37.351 37.351 0 0 1-3.312 2.399s9.373 6.375 12.393 5.91l1.758-.273-1.724-6.831Z"/><path fill="#187cba" stroke="black" strokeLinecap="round" strokeLinejoin="round" d="m373.839 245.683-6.151.82s14.364 5.06 18.511 5.009c4.146-.05 20.28 7.499 20.28 7.499s6.85-9.108 1.701-17.204c-5.149-8.096-14.095-10.221-20.798-8.096-6.704 2.126-10.185 4.241-13.543 11.972Z"/><path fill="#fff" stroke="#263238" strokeLinecap="round" strokeLinejoin="round" d="m402.58 264.83-20.179 11.072.755 5.707 22.41-11.739-2.986-5.04Z"/><path fill="#263238" stroke="#263238" strokeLinecap="round" strokeLinejoin="round" d="M320.413 389.316s-11.909 5.981-14.016 6.609c-2.107.627-15.773 3.775-15.401 5.981.372 2.206 1.397 2.823 6.996 4.048 5.6 1.224 29.068 3.461 32.223 3.147 3.155-.314-.349-17.305-.349-17.305l-9.453-2.48Z"/><path fill="#fff" stroke="#263238" strokeLinecap="round" strokeLinejoin="round" d="M297.992 405.994c5.634 1.255 29.068 3.461 32.223 3.147 1.127-.111 1.397-2.357 1.284-5.181-18.86 2.409-33.135-.749-40.053-2.894a1.042 1.042 0 0 0-.339.37.914.914 0 0 0-.111.47c.349 2.196 1.397 2.823 6.996 4.088Z"/><path fill="#187CBA" d="M409.701 339.941s-15.052-5.981-16.494-6.922c-1.442-.941-44.83 2.196-48.684 4.716-3.853 2.52-33.27 48.758-33.27 48.758l18.917 11.011 29.462-40.268s11.199-.314 14.004-1.255c2.806-.941 19.266-3.461 19.266-3.461s17.858 2.196 22.759.314c4.901-1.883-.698-9.756-.698-9.756"/><path stroke="#263238" strokeLinecap="round" strokeLinejoin="round" d="M409.701 339.941s-15.052-5.981-16.494-6.922c-1.442-.941-44.83 2.196-48.684 4.716-3.853 2.52-33.27 48.758-33.27 48.758l18.917 11.011 29.462-40.268s11.199-.314 14.004-1.255c2.806-.941 19.266-3.461 19.266-3.461s17.858 2.196 22.759.314c4.901-1.883-.698-9.756-.698-9.756"/><path stroke="#263238" strokeMiterlimit="10" d="m358.934 356.295-9.104-9.756 10.151 6.608"/><path fill="#263238" stroke="#263238" strokeLinecap="round" strokeLinejoin="round" d="M367.812 361.345h67.498v-17.811s-2.884-3.158-8.957-1.154-10.557 9.199-10.557 9.199-44.469-6.892-47.984 9.766Z"/><path fill="#263238" stroke="#263238" strokeLinecap="round" strokeLinejoin="round" d="M434.668 350.425h8.957l15.356-38.79-7.041-1.72-17.272 40.51Z"/><path fill="#263238" stroke="#263238" strokeLinecap="round" strokeLinejoin="round" d="m451.94 309.915-12.472 30.461-10.726-3.947a9.219 9.219 0 0 1-3.096-1.878 8.125 8.125 0 0 1-1.993-2.839 7.413 7.413 0 0 1-.554-3.318 7.53 7.53 0 0 1 .978-3.238c3.786-6.649 9.836-15.626 16.664-19.552 11.514-6.609 12.179-.284 11.199 4.311Z"/><path fill="#187CBA" stroke="#263238" strokeLinecap="round" strokeLinejoin="round" d="m346.676 376.272-2.107 40.105-38.566 6.072c7.197 4.285 12.48 10.714 14.92 18.153 2.44 7.44 1.881 15.414-1.58 22.52h160.313c1.927 0 3.776-.688 5.139-1.912 1.362-1.224 2.128-2.885 2.128-4.616v-86.759c.003-1.478-.613-2.903-1.725-3.992-1.113-1.089-2.64-1.763-4.28-1.887-21.328-1.66-94.189-5.708-134.242 12.316Z"/><path fill="#263238" stroke="#263238" strokeLinecap="round" strokeLinejoin="round" d="M285.734 477.664c17.087 0 30.938-12.442 30.938-27.79 0-15.347-13.851-27.789-30.938-27.789-17.087 0-30.938 12.442-30.938 27.789 0 15.348 13.851 27.79 30.938 27.79Z"/><path fill="#fff" stroke="#263238" strokeLinecap="round" strokeLinejoin="round" d="M285.734 462.818c7.959 0 14.41-5.795 14.41-12.943 0-7.149-6.451-12.944-14.41-12.944-7.958 0-14.41 5.795-14.41 12.944 0 7.148 6.452 12.943 14.41 12.943Z"/><path fill="#263238" stroke="#263238" strokeLinecap="round" strokeLinejoin="round" d="M469.583 477.664c9.054 0 16.393-6.592 16.393-14.725 0-8.132-7.339-14.724-16.393-14.724-9.053 0-16.393 6.592-16.393 14.724 0 8.133 7.34 14.725 16.393 14.725Z"/><path fill="#fff" stroke="#263238" strokeLinecap="round" strokeLinejoin="round" d="M477.211 462.939c0-1.357-.448-2.684-1.288-3.813-.84-1.128-2.034-2.008-3.43-2.527a8.441 8.441 0 0 0-4.415-.388c-1.482.265-2.843.92-3.911 1.88-1.068.961-1.795 2.184-2.088 3.516a6.217 6.217 0 0 0 .439 3.965c.58 1.254 1.561 2.325 2.819 3.077a8.263 8.263 0 0 0 4.247 1.152 8.381 8.381 0 0 0 2.921-.523 7.737 7.737 0 0 0 2.476-1.487 6.853 6.853 0 0 0 1.653-2.227 6.25 6.25 0 0 0 .577-2.625Z"/><path fill="#187CBA" stroke="#263238" strokeLinecap="round" strokeLinejoin="round" d="M264.936 424.979c5.881-3.968 13.016-6.152 20.371-6.236 7.354-.084 14.548 1.936 20.541 5.767 5.992 3.832 10.471 9.277 12.79 15.547a28.123 28.123 0 0 1 .108 19.33h2.253c2.227-6.659 2.057-13.78-.486-20.348-2.544-6.567-7.33-12.246-13.677-16.227-6.347-3.98-13.931-6.06-21.672-5.941-7.74.118-15.241 2.428-21.434 6.6l1.206 1.508Z"/><path stroke="#263238" strokeLinecap="round" strokeLinejoin="round" d="M344.568 416.377s84.726-11.273 91.136-12.144c6.411-.87 25.305-6.972 32.392-40.915"/><path fill="#187CBA" stroke="#263238" strokeLinecap="round" strokeLinejoin="round" d="M150.218 137.996H69.256v77.813h80.962v-77.813Z" className="animation-montaCarga"/><path fill="#263238" d="M82.98 137.996h-7.358v28.306h7.357v-28.306Z" className="animation-montaCarga"/><path fill="#187CBA" stroke="#263238" strokeLinecap="round" strokeLinejoin="round" d="M231.113 137.996H150.15v77.813h80.963v-77.813Z" className="animation-montaCarga"/><path fill="#263238" d="M163.874 137.996h-7.357v28.306h7.357v-28.306Z" className="animation-montaCarga"/><path fill="#187CBA" stroke="#263238" strokeLinecap="round" strokeLinejoin="round" d="M150.218 59.678H69.256v77.812h80.962V59.678Z" className="animation-montaCarga"/><path fill="#263238" d="M82.98 59.678h-7.358v28.305h7.357V59.678Z" className="animation-montaCarga"/><path fill="#187CBA" stroke="#263238" strokeLinecap="round" strokeLinejoin="round" d="M231.113 59.678H150.15v77.812h80.963V59.678Z" className="animation-montaCarga"/><path fill="#263238" d="M163.874 59.678h-7.357v28.305h7.357V59.678Z" className="animation-montaCarga"/><path fill="#fff" stroke="#263238" strokeLinecap="round" strokeLinejoin="round" d="M239.484 225.463H66.146v3.715h173.338v-3.715ZM239.484 211.984H66.146v3.714h173.338v-3.714ZM82.708 215.809H69.256v9.432h13.452v-9.432ZM157.327 215.809h-13.452v9.432h13.452v-9.432ZM231.936 215.809h-13.453v9.432h13.453v-9.432Z" className="animation-montaCarga"/><path fill="#fff" stroke="#263238" strokeLinecap="round" strokeLinejoin="round" d="M377.917 315.167s-19.795 6.072-22.781 7.084a6.515 6.515 0 0 0-2.17 1.004 5.786 5.786 0 0 0-1.571 1.678s-2.613 5.708-.371 6.71c2.242 1.001 7.886.333 7.886.333s3.38.679 4.113-.667a17.929 17.929 0 0 0 1.126-4.696s17.193-1.012 20.923-1.346c2.485-.316 4.825-1.244 6.76-2.682l-13.915-7.418Z"/><path fill="#187CBA" stroke="#263238" strokeLinecap="round" strokeLinejoin="round" d="M362.978 331.278c.593-1.509.972-3.08 1.127-4.675-2.178-.181-4.235-.982-5.87-2.287-1.352-1.073-1.431-2.024-1.127-2.743-.901.284-1.611.506-2.005.648a6.487 6.487 0 0 0-2.17 1.004 5.773 5.773 0 0 0-1.571 1.678s-2.614 5.707-.372 6.709c2.243 1.002 7.887.334 7.887.334s3.358.678 4.101-.668Z"/><path fill="#fff" d="M394.334 279.312s-4.102 4.362-5.228 8.096c-1.127 3.734-4.113 17.113-4.113 17.113l-2.985 5.06-4.112 5.698c.481 1.609 1.426 3.077 2.739 4.255s2.949 2.024 4.742 2.454c6.343 1.68 7.886 2.358 9.34 1.012 1.453-1.346 7.886-11.415 9.34-16.111 1.453-4.696 7.47-17.781 7.47-17.781"/><path stroke="#263238" strokeLinecap="round" strokeLinejoin="round" d="M394.334 279.312s-4.102 4.362-5.228 8.096c-1.127 3.734-4.113 17.113-4.113 17.113l-2.985 5.06-4.112 5.698c.481 1.609 1.426 3.077 2.739 4.255s2.949 2.024 4.742 2.454c6.343 1.68 7.886 2.358 9.34 1.012 1.453-1.346 7.886-11.415 9.34-16.111 1.453-4.696 7.47-17.781 7.47-17.781"/><path fill="#fff" stroke="#263238" strokeLinecap="round" strokeLinejoin="round" d="m382.03 309.47-8.596 4.695a20.944 20.944 0 0 0 3.74 6.71c2.614 3.036 6.76 4.362 7.887 4.362h5.239l5.971-3.036s-8.213-1.012-10.827-6.072c-2.614-5.06-3.414-6.659-3.414-6.659Z"/><path fill="#263238" stroke="#263238" strokeMiterlimit="10" d="m329.516 316.655 4.202 10.069 11.199 4.716 3.853-5.971-19.254-8.814Z"/><path fill="#263238" d="M360.736 332.827a2.38 2.38 0 0 1-.98-.213l-38.115-18.125a1.937 1.937 0 0 1-.95-1.115 1.726 1.726 0 0 1 .168-1.397 2.06 2.06 0 0 1 1.193-.908 2.326 2.326 0 0 1 1.561.081l38.104 18.124c.417.195.749.511.942.896.194.385.238.817.124 1.227-.113.41-.376.774-.747 1.033-.372.26-.829.399-1.3.397Z"/><path stroke="#263238" strokeLinecap="round" strokeLinejoin="round" d="M64.22 477.664h747.938M24.787 477.664h31.547"/><path fill="#A7D5F2" d="M104.793 76h10.415v46h-10.415z" className="animation-montaCarga"/><path fill="#A7D5F2" d="M87 93.208h46v10.415H87z" className="animation-montaCarga"/><g clipPath="url(#a)"><path fill="#A7D5F2" d="M510.612 275.066c0-.61-.456-1.102-1.01-1.102h-6.01c-.56 0-1.011.498-1.011 1.102v2.502h8.037v-2.502h-.006Z"/><path fill="#fff" d="M527.979 293.502c-.006-.006-.022-.006-.027-.012-1.299-.8-2.098-2.311-2.098-3.93v-.403h-3.119v.403c0 1.636-.81 3.148-2.125 3.948-.728.445-1.184 1.292-1.184 2.205v.403h9.737v-.403c.006-.924-.451-1.766-1.184-2.211ZM519.432 304.569c0 .765.57 1.382 1.266 1.382h7.194c.701 0 1.266-.623 1.266-1.382v-1.422h-9.726v1.422Z"/><path fill="#56ACE0" d="M527.104 285.511c0-.326-.239-.586-.538-.586h-4.526c-.299 0-.538.26-.538.586v1.636h5.608l-.006-1.636ZM529.169 298.108h-9.737v3.041h9.737v-3.041Z"/><path fill="#fff" d="m511.623 285.381-.011-.006c-1.635-1.008-2.651-2.899-2.651-4.944v-.859h-4.733v.865c0 2.057-1.022 3.954-2.663 4.956-1.065.652-1.728 1.879-1.728 3.207v.711h13.514v-.699c0-1.352-.657-2.579-1.728-3.231ZM499.837 303.787c0 1.192.891 2.164 1.983 2.164h9.548c1.092 0 1.983-.972 1.983-2.164v-1.654h-13.514v1.654Z"/><path fill="#A7D5F2" d="M499.837 292.779h3.782c.505 0 .918.445.918 1.002 0 .551-.407 1.002-.918 1.002h-3.782v1.997h1.962c.505 0 .918.445.918 1.002 0 .557-.408 1.002-.918 1.002h-1.962v1.363h13.514v-8.85h-13.514v1.482Z"/><path fill="#194F82" d="M528.903 291.771c-.006-.006-.011-.006-.028-.012-.733-.444-1.184-1.292-1.184-2.205v-.403h.331c.506 0 .919-.444.919-1.002v-2.643c0-1.423-1.065-2.585-2.37-2.585h-4.531c-1.305 0-2.37 1.162-2.37 2.585v2.643c0 .552.408 1.002.919 1.002h.326v.403c0 .913-.457 1.755-1.185 2.205-1.304.801-2.125 2.312-2.125 3.948v8.862c0 1.862 1.392 3.379 3.098 3.379h7.194c1.706 0 3.097-1.517 3.097-3.379v-8.862c.006-1.63-.798-3.135-2.091-3.936Zm.266 12.798c0 .765-.571 1.382-1.266 1.382h-7.206c-.7 0-1.266-.623-1.266-1.382v-1.422h9.738v1.422Zm0-3.42h-9.738v-3.041h9.738v3.041Zm0-5.039h-9.738v-.403c0-.913.457-1.754 1.185-2.205 1.31-.8 2.125-2.312 2.125-3.948v-.403h3.119v.403c0 1.63.804 3.13 2.097 3.93.006.006.011.012.027.012.734.445 1.185 1.293 1.185 2.205V296.11Zm-7.673-10.599c0-.326.239-.586.538-.586h4.532c.299 0 .538.26.538.586v1.636h-5.608v-1.636ZM512.536 283.644l-.011-.006c-1.065-.652-1.728-1.879-1.728-3.207v-.859h.734c.505 0 .918-.445.918-1.002v-3.509c0-1.714-1.277-3.113-2.853-3.113h-6.004c-1.57 0-2.847 1.393-2.847 3.113v3.497c0 .551.407 1.002.918 1.002h.733v.865c0 1.334-.663 2.561-1.722 3.207-1.652 1.002-2.668 2.899-2.668 4.956v15.199c0 2.294 1.717 4.162 3.814 4.162h9.548c2.103 0 3.814-1.862 3.814-4.162v-15.193c.006-2.051-1.01-3.942-2.646-4.95Zm.815 20.143c0 1.192-.891 2.164-1.983 2.164h-9.542c-1.092 0-1.983-.972-1.983-2.164v-1.654h13.519v1.654h-.011Zm0-3.652h-13.514v-1.363h1.962c.505 0 .918-.444.918-1.002 0-.551-.408-1.002-.918-1.002h-1.962v-1.997h3.782c.505 0 .918-.445.918-1.002 0-.551-.407-1.002-.918-1.002h-3.782v-1.482h13.514v8.85Zm0-10.842h-13.514v-.711c0-1.334.663-2.561 1.728-3.207 1.641-1.008 2.663-2.899 2.663-4.956v-.865h4.733v.86c0 2.045 1.01 3.942 2.651 4.943l.011.006c1.065.652 1.728 1.879 1.728 3.207v.723Zm-10.775-14.227c0-.61.456-1.102 1.01-1.102h6.01c.56 0 1.011.498 1.011 1.102v2.502h-8.031v-2.502Z"/></g><path fill="#A7D5F2" stroke="#187CBA" d="M592.09 299.44c.977-.036 1.795-.841 1.83-1.82v-.001l.013-.391v-.002a1.684 1.684 0 0 0-1.767-1.761h-.021l.518-13.791v-.002a1.535 1.535 0 0 0-.747-1.387l-.001-.001-3.538-2.102.182-4.829v-.001a2.057 2.057 0 0 0-2.159-2.149c-1.201.043-2.204 1.037-2.249 2.236v.001l-.187 4.988-3.715 2.248a1.732 1.732 0 0 0-.84 1.402v.001l-.519 13.863-.094.003c-.977.036-1.795.844-1.83 1.821l-.013.391v.001c-.018.476.156.936.493 1.272l.003.002c.336.33.795.503 1.27.488h.002l3.874-.14-.112 2.975-2.949.107h-.002a1.905 1.905 0 0 0-1.265.557l-.001.001c-.335.337-.54.788-.559 1.259l-.001.002-.01.266a1.684 1.684 0 0 0 1.769 1.762h.002l11.369-.409h.001a1.89 1.89 0 0 0 1.269-.558c.335-.335.541-.786.559-1.26v-.001l.01-.268a1.683 1.683 0 0 0-1.769-1.761l-2.876.104.111-2.975 3.949-.141Zm-7.565-8.439h-.002l-2.18.079.004-.126 2.25-.082h.001a1.119 1.119 0 0 0 1.073-1.063 1.02 1.02 0 0 0-1.063-1.063h-.001l-2.181.078.005-.127 2.252-.081a1.117 1.117 0 0 0 1.071-1.066 1.02 1.02 0 0 0-1.061-1.062h-.004l-2.179.079.005-.128 2.253-.08h.001a1.122 1.122 0 0 0 1.07-1.066 1.02 1.02 0 0 0-1.063-1.063h-.001l-2.18.079.051-1.356 3.581-2.169 3.129 1.86-.48 12.803-6.707.241.094-2.477 2.253-.081.001-.001a1.117 1.117 0 0 0 1.071-1.063 1.018 1.018 0 0 0-1.063-1.065Z"/><path xmlns="http://www.w3.org/2000/svg" fill="#A7D5F2" d="M551.506 275.948h-14.012c-.839 0-1.518.781-1.518 1.744v27.513c0 .963.679 1.743 1.518 1.743h14.012c.839 0 1.519-.78 1.519-1.743v-27.513c0-.964-.68-1.744-1.519-1.744Zm-11.913 5.543c.821-.917 2.135-.897 2.934.045.34.402.531.905.576 1.422l-4.125-.003a2.519 2.519 0 0 1 .615-1.464Zm3.484 2.147a2.5 2.5 0 0 1-.59 1.266c-.821.917-2.135.897-2.934-.045a2.514 2.514 0 0 1-.552-1.223l4.076.002Zm-3.46 5.466c.821-.917 2.135-.897 2.934.045.34.401.53.905.576 1.422l-4.126-.003a2.538 2.538 0 0 1 .616-1.464Zm3.485 2.147a2.51 2.51 0 0 1-.59 1.268c-.821.915-2.135.897-2.934-.046a2.523 2.523 0 0 1-.552-1.222h4.076Zm-.566 8.88c-.821.916-2.135.897-2.934-.045a2.522 2.522 0 0 1-.552-1.223l4.076.002c-.076.464-.272.91-.59 1.266Zm-3.51-1.95a2.522 2.522 0 0 1 .616-1.464c.821-.917 2.135-.897 2.934.044.34.401.53.906.576 1.422l-4.126-.002Zm7.845-16.69c.82-.917 2.135-.897 2.933.045.341.402.531.905.577 1.422l-4.125-.003a2.512 2.512 0 0 1 .615-1.464Zm3.483 2.147c-.075.465-.272.91-.59 1.266-.82.917-2.135.897-2.934-.045a2.532 2.532 0 0 1-.552-1.223l4.076.002Zm-3.46 5.466c.821-.917 2.136-.897 2.934.045.341.401.531.905.577 1.422l-4.125-.003a2.523 2.523 0 0 1 .614-1.464Zm3.486 2.147c-.076.466-.273.91-.591 1.268-.82.915-2.135.897-2.934-.046a2.524 2.524 0 0 1-.553-1.222h4.078Zm-.566 8.88c-.821.916-2.135.897-2.934-.045a2.523 2.523 0 0 1-.553-1.223l4.077.002c-.076.464-.273.91-.59 1.266Zm-3.512-1.95a2.53 2.53 0 0 1 .617-1.464c.82-.917 2.135-.897 2.934.044.34.401.531.906.576 1.422l-4.127-.002Z"/><defs><clipPath id="a"><path fill="#fff" d="M498 271.948h33v36h-33z"/></clipPath><clipPath id="b"><path fill="#fff" d="M553 273.948h27v32h-27z"/></clipPath></defs>{/* ENTRADAS */}<path fill="#2D2D2D" d="M464.424 54.456h5.568v1.712h-5.568v-1.712Zm.16 4.8h6.32V61h-8.4V49.8h8.176v1.744h-6.096v7.712ZM473.223 61V49.8h1.712l7.024 8.624h-.848V49.8h2.064V61h-1.712l-7.024-8.624h.848V61h-2.064Zm15.225 0v-9.44h-3.712V49.8h9.504v1.76h-3.712V61h-2.08Zm7.353 0V49.8h4.608c.992 0 1.84.16 2.544.48.715.32 1.264.779 1.648 1.376.384.597.576 1.307.576 2.128 0 .821-.192 1.53-.576 2.128-.384.587-.933 1.04-1.648 1.36-.704.31-1.552.464-2.544.464h-3.456l.928-.944V61h-2.08Zm7.328 0-2.832-4.064h2.224L505.369 61h-2.24Zm-5.248-3.984-.928-.992h3.36c.917 0 1.605-.197 2.064-.592.469-.395.704-.944.704-1.648 0-.715-.235-1.264-.704-1.648-.459-.384-1.147-.576-2.064-.576h-3.36l.928-1.024v6.48ZM505.92 61l5.04-11.2h2.048l5.056 11.2h-2.176l-4.336-10.096h.832L508.064 61h-2.144Zm2.32-2.592.56-1.632h6.048l.56 1.632h-7.168ZM519.488 61V49.8h4.896c1.216 0 2.283.235 3.2.704.918.47 1.632 1.12 2.144 1.952.512.832.768 1.813.768 2.944 0 1.12-.256 2.101-.768 2.944-.512.832-1.226 1.483-2.144 1.952-.917.47-1.984.704-3.2.704h-4.896Zm2.08-1.76h2.72c.843 0 1.568-.16 2.176-.48a3.395 3.395 0 0 0 1.424-1.344c.342-.576.512-1.248.512-2.016 0-.779-.17-1.45-.512-2.016a3.395 3.395 0 0 0-1.424-1.344c-.608-.32-1.333-.48-2.176-.48h-2.72v7.68Zm9.399 1.76 5.04-11.2h2.048l5.056 11.2h-2.176l-4.336-10.096h.832L533.111 61h-2.144Zm2.32-2.592.56-1.632h6.048l.56 1.632h-7.168Zm14.72 2.752a8.524 8.524 0 0 1-2.512-.368c-.8-.256-1.434-.581-1.904-.976l.72-1.616c.448.352 1.003.645 1.664.88a6.037 6.037 0 0 0 2.032.352c.587 0 1.062-.064 1.424-.192.363-.128.63-.299.8-.512.171-.224.256-.475.256-.752 0-.341-.122-.613-.368-.816-.245-.213-.565-.379-.96-.496a13.127 13.127 0 0 0-1.296-.352c-.469-.107-.944-.23-1.424-.368a6.8 6.8 0 0 1-1.296-.56 2.912 2.912 0 0 1-.944-.928c-.245-.384-.368-.875-.368-1.472 0-.608.16-1.163.48-1.664.331-.512.827-.917 1.488-1.216.672-.31 1.52-.464 2.544-.464a7.97 7.97 0 0 1 2 .256c.662.17 1.238.416 1.728.736l-.656 1.616a5.935 5.935 0 0 0-1.552-.656 5.69 5.69 0 0 0-1.536-.224c-.576 0-1.045.07-1.408.208-.352.139-.613.32-.784.544-.16.224-.24.48-.24.768 0 .341.118.619.352.832.246.203.56.363.944.48.395.117.832.235 1.312.352.48.107.955.23 1.424.368.48.139.912.32 1.296.544.395.224.71.528.944.912.246.384.368.87.368 1.456 0 .597-.165 1.152-.496 1.664-.32.501-.816.907-1.488 1.216-.672.299-1.52.448-2.544.448Z" className="opacity-1 animation-float textoSVG duration-700"/>{/* SALIDAS */}<path fill="#2D2D2D" d="M465.976 61.16a8.52 8.52 0 0 1-2.512-.368c-.8-.256-1.435-.581-1.904-.976l.72-1.616c.448.352 1.003.645 1.664.88a6.033 6.033 0 0 0 2.032.352c.587 0 1.061-.064 1.424-.192s.629-.299.8-.512c.171-.224.256-.475.256-.752 0-.341-.123-.613-.368-.816-.245-.213-.565-.379-.96-.496a13.127 13.127 0 0 0-1.296-.352c-.469-.107-.944-.23-1.424-.368a6.8 6.8 0 0 1-1.296-.56 2.903 2.903 0 0 1-.944-.928c-.245-.384-.368-.875-.368-1.472 0-.608.16-1.163.48-1.664.331-.512.827-.917 1.488-1.216.672-.31 1.52-.464 2.544-.464a7.97 7.97 0 0 1 2 .256c.661.17 1.237.416 1.728.736l-.656 1.616a5.95 5.95 0 0 0-1.552-.656 5.69 5.69 0 0 0-1.536-.224c-.576 0-1.045.07-1.408.208-.352.139-.613.32-.784.544-.16.224-.24.48-.24.768 0 .341.117.619.352.832.245.203.56.363.944.48.395.117.832.235 1.312.352.48.107.955.23 1.424.368.48.139.912.32 1.296.544.395.224.709.528.944.912.245.384.368.87.368 1.456 0 .597-.165 1.152-.496 1.664-.32.501-.816.907-1.488 1.216-.672.299-1.52.448-2.544.448Zm5.006-.16 5.041-11.2h2.048l5.056 11.2h-2.176l-4.336-10.096h.832L473.127 61h-2.145Zm2.321-2.592.56-1.632h6.048l.559 1.632h-7.167ZM484.551 61V49.8h2.08v9.44h5.856V61h-7.936Zm9.578 0V49.8h2.08V61h-2.08Zm5.109 0V49.8h4.896c1.216 0 2.283.235 3.2.704.918.47 1.632 1.12 2.144 1.952.512.832.768 1.813.768 2.944 0 1.12-.256 2.101-.768 2.944-.512.832-1.226 1.483-2.144 1.952-.917.47-1.984.704-3.2.704h-4.896Zm2.08-1.76h2.72c.843 0 1.568-.16 2.176-.48a3.395 3.395 0 0 0 1.424-1.344c.342-.576.512-1.248.512-2.016 0-.779-.17-1.45-.512-2.016a3.395 3.395 0 0 0-1.424-1.344c-.608-.32-1.333-.48-2.176-.48h-2.72v7.68Zm9.399 1.76 5.04-11.2h2.048l5.056 11.2h-2.176l-4.336-10.096h.832L512.861 61h-2.144Zm2.32-2.592.56-1.632h6.048l.56 1.632h-7.168Zm14.72 2.752a8.524 8.524 0 0 1-2.512-.368c-.8-.256-1.434-.581-1.904-.976l.72-1.616c.448.352 1.003.645 1.664.88a6.037 6.037 0 0 0 2.032.352c.587 0 1.062-.064 1.424-.192.363-.128.63-.299.8-.512.171-.224.256-.475.256-.752 0-.341-.122-.613-.368-.816-.245-.213-.565-.379-.96-.496a13.127 13.127 0 0 0-1.296-.352c-.469-.107-.944-.23-1.424-.368a6.8 6.8 0 0 1-1.296-.56 2.912 2.912 0 0 1-.944-.928c-.245-.384-.368-.875-.368-1.472 0-.608.16-1.163.48-1.664.331-.512.827-.917 1.488-1.216.672-.31 1.52-.464 2.544-.464a7.97 7.97 0 0 1 2 .256c.662.17 1.238.416 1.728.736l-.656 1.616a5.935 5.935 0 0 0-1.552-.656 5.69 5.69 0 0 0-1.536-.224c-.576 0-1.045.07-1.408.208-.352.139-.613.32-.784.544-.16.224-.24.48-.24.768 0 .341.118.619.352.832.246.203.56.363.944.48.395.117.832.235 1.312.352.48.107.955.23 1.424.368.48.139.912.32 1.296.544.395.224.71.528.944.912.246.384.368.87.368 1.456 0 .597-.165 1.152-.496 1.664-.32.501-.816.907-1.488 1.216-.672.299-1.52.448-2.544.448Z" className="opacity-0 animation-float textoSVG duration-700"/>{/* SOLICITAR */}<path fill="#2D2D2D" d="M465.976 61.16a8.52 8.52 0 0 1-2.512-.368c-.8-.256-1.435-.581-1.904-.976l.72-1.616c.448.352 1.003.645 1.664.88a6.033 6.033 0 0 0 2.032.352c.587 0 1.061-.064 1.424-.192s.629-.299.8-.512c.171-.224.256-.475.256-.752 0-.341-.123-.613-.368-.816-.245-.213-.565-.379-.96-.496a13.127 13.127 0 0 0-1.296-.352c-.469-.107-.944-.23-1.424-.368a6.8 6.8 0 0 1-1.296-.56 2.903 2.903 0 0 1-.944-.928c-.245-.384-.368-.875-.368-1.472 0-.608.16-1.163.48-1.664.331-.512.827-.917 1.488-1.216.672-.31 1.52-.464 2.544-.464a7.97 7.97 0 0 1 2 .256c.661.17 1.237.416 1.728.736l-.656 1.616a5.95 5.95 0 0 0-1.552-.656 5.69 5.69 0 0 0-1.536-.224c-.576 0-1.045.07-1.408.208-.352.139-.613.32-.784.544-.16.224-.24.48-.24.768 0 .341.117.619.352.832.245.203.56.363.944.48.395.117.832.235 1.312.352.48.107.955.23 1.424.368.48.139.912.32 1.296.544.395.224.709.528.944.912.245.384.368.87.368 1.456 0 .597-.165 1.152-.496 1.664-.32.501-.816.907-1.488 1.216-.672.299-1.52.448-2.544.448Zm11.839 0c-.875 0-1.68-.144-2.416-.432a5.911 5.911 0 0 1-1.92-1.2 5.54 5.54 0 0 1-1.264-1.824 5.833 5.833 0 0 1-.448-2.304c0-.832.149-1.595.448-2.288a5.327 5.327 0 0 1 1.264-1.824 5.775 5.775 0 0 1 1.92-1.216 6.53 6.53 0 0 1 2.4-.432c.874 0 1.674.144 2.4.432a5.775 5.775 0 0 1 1.92 1.216 5.34 5.34 0 0 1 1.264 1.824c.298.693.448 1.456.448 2.288 0 .832-.15 1.6-.448 2.304a5.34 5.34 0 0 1-1.264 1.824 5.911 5.911 0 0 1-1.92 1.2 6.407 6.407 0 0 1-2.384.432Zm-.016-1.824c.565 0 1.088-.096 1.568-.288.48-.192.896-.464 1.248-.816.352-.363.624-.779.816-1.248.202-.48.304-1.008.304-1.584 0-.576-.102-1.099-.304-1.568a3.671 3.671 0 0 0-.816-1.248 3.56 3.56 0 0 0-1.248-.832 4.185 4.185 0 0 0-1.568-.288c-.566 0-1.088.096-1.568.288-.47.192-.886.47-1.248.832-.352.352-.63.768-.832 1.248-.192.47-.288.992-.288 1.568 0 .565.096 1.088.288 1.568.202.48.48.901.832 1.264.352.352.768.624 1.248.816.48.192 1.002.288 1.568.288ZM486.035 61V49.8h2.08v9.44h5.856V61h-7.936Zm9.578 0V49.8h2.08V61h-2.08Zm10.294.16a6.704 6.704 0 0 1-2.384-.416 5.945 5.945 0 0 1-1.904-1.2 5.602 5.602 0 0 1-1.248-1.84 5.833 5.833 0 0 1-.448-2.304c0-.832.149-1.6.448-2.304a5.327 5.327 0 0 1 1.264-1.824 5.599 5.599 0 0 1 1.904-1.2 6.403 6.403 0 0 1 2.384-.432c.917 0 1.754.16 2.512.48.757.31 1.397.773 1.92 1.392l-1.344 1.264a3.977 3.977 0 0 0-1.36-.976 3.959 3.959 0 0 0-1.632-.336c-.587 0-1.126.096-1.616.288a3.84 3.84 0 0 0-1.264.816c-.352.352-.63.768-.832 1.248a4.228 4.228 0 0 0-.288 1.584c0 .576.096 1.104.288 1.584.202.48.48.896.832 1.248a3.84 3.84 0 0 0 1.264.816c.49.192 1.029.288 1.616.288a4.13 4.13 0 0 0 1.632-.32 4.08 4.08 0 0 0 1.36-1.008l1.344 1.28a5.129 5.129 0 0 1-1.92 1.392c-.758.32-1.6.48-2.528.48Zm6.441-.16V49.8h2.08V61h-2.08Zm7.381 0v-9.44h-3.712V49.8h9.504v1.76h-3.712V61h-2.08Zm5.207 0 5.04-11.2h2.048L537.08 61h-2.176l-4.336-10.096h.832L527.08 61h-2.144Zm2.32-2.592.56-1.632h6.048l.56 1.632h-7.168ZM538.504 61V49.8h4.608c.992 0 1.84.16 2.544.48.715.32 1.264.779 1.648 1.376.384.597.576 1.307.576 2.128 0 .821-.192 1.53-.576 2.128-.384.587-.933 1.04-1.648 1.36-.704.31-1.552.464-2.544.464h-3.456l.928-.944V61h-2.08Zm7.328 0L543 56.936h2.224L548.072 61h-2.24Zm-5.248-3.984-.928-.992h3.36c.917 0 1.605-.197 2.064-.592.469-.395.704-.944.704-1.648 0-.715-.235-1.264-.704-1.648-.459-.384-1.147-.576-2.064-.576h-3.36l.928-1.024v6.48Z" className="opacity-0 animation-float textoSVG duration-700"/>{/* ESTADSTICAS */}<path fill="#2D2D2D" d="M464.424 54.456h5.568v1.712h-5.568v-1.712Zm.16 4.8h6.32V61h-8.4V49.8h8.176v1.744h-6.096v7.712Zm12.111 1.904a8.52 8.52 0 0 1-2.512-.368c-.8-.256-1.435-.581-1.904-.976l.72-1.616c.448.352 1.002.645 1.664.88a6.029 6.029 0 0 0 2.032.352c.586 0 1.061-.064 1.424-.192.362-.128.629-.299.8-.512.17-.224.256-.475.256-.752 0-.341-.123-.613-.368-.816-.246-.213-.566-.379-.96-.496a13.127 13.127 0 0 0-1.296-.352c-.47-.107-.944-.23-1.424-.368a6.746 6.746 0 0 1-1.296-.56 2.903 2.903 0 0 1-.944-.928c-.246-.384-.368-.875-.368-1.472 0-.608.16-1.163.48-1.664.33-.512.826-.917 1.488-1.216.672-.31 1.52-.464 2.544-.464.672 0 1.338.085 2 .256.661.17 1.237.416 1.728.736l-.656 1.616a5.964 5.964 0 0 0-1.552-.656 5.701 5.701 0 0 0-1.536-.224c-.576 0-1.046.07-1.408.208-.352.139-.614.32-.784.544-.16.224-.24.48-.24.768 0 .341.117.619.352.832.245.203.56.363.944.48.394.117.832.235 1.312.352.48.107.954.23 1.424.368.48.139.912.32 1.296.544.394.224.709.528.944.912.245.384.368.87.368 1.456 0 .597-.166 1.152-.496 1.664-.32.501-.816.907-1.488 1.216-.672.299-1.52.448-2.544.448Zm8.706-.16v-9.44h-3.712V49.8h9.504v1.76h-3.712V61h-2.08Zm5.206 0 5.041-11.2h2.048l5.056 11.2h-2.176l-4.336-10.096h.832L492.752 61h-2.145Zm2.321-2.592.56-1.632h6.048l.559 1.632h-7.167ZM504.176 61V49.8h4.896c1.216 0 2.283.235 3.2.704.917.47 1.632 1.12 2.144 1.952.512.832.768 1.813.768 2.944 0 1.12-.256 2.101-.768 2.944-.512.832-1.227 1.483-2.144 1.952-.917.47-1.984.704-3.2.704h-4.896Zm2.08-1.76h2.72c.843 0 1.568-.16 2.176-.48a3.4 3.4 0 0 0 1.424-1.344c.341-.576.512-1.248.512-2.016 0-.779-.171-1.45-.512-2.016a3.4 3.4 0 0 0-1.424-1.344c-.608-.32-1.333-.48-2.176-.48h-2.72v7.68ZM517.395 61V49.8h2.08V61h-2.08Zm-.304-12.112 2.16-2.192h2.352l-2.784 2.192h-1.728Zm8.885 12.272a8.52 8.52 0 0 1-2.512-.368c-.8-.256-1.435-.581-1.904-.976l.72-1.616c.448.352 1.003.645 1.664.88a6.033 6.033 0 0 0 2.032.352c.587 0 1.061-.064 1.424-.192s.629-.299.8-.512c.171-.224.256-.475.256-.752 0-.341-.123-.613-.368-.816-.245-.213-.565-.379-.96-.496a13.127 13.127 0 0 0-1.296-.352c-.469-.107-.944-.23-1.424-.368a6.8 6.8 0 0 1-1.296-.56 2.903 2.903 0 0 1-.944-.928c-.245-.384-.368-.875-.368-1.472 0-.608.16-1.163.48-1.664.331-.512.827-.917 1.488-1.216.672-.31 1.52-.464 2.544-.464a7.97 7.97 0 0 1 2 .256c.661.17 1.237.416 1.728.736l-.656 1.616a5.95 5.95 0 0 0-1.552-.656 5.69 5.69 0 0 0-1.536-.224c-.576 0-1.045.07-1.408.208-.352.139-.613.32-.784.544-.16.224-.24.48-.24.768 0 .341.117.619.352.832.245.203.56.363.944.48.395.117.832.235 1.312.352.48.107.955.23 1.424.368.48.139.912.32 1.296.544.395.224.709.528.944.912.245.384.368.87.368 1.456 0 .597-.165 1.152-.496 1.664-.32.501-.816.907-1.488 1.216-.672.299-1.52.448-2.544.448Zm8.706-.16v-9.44h-3.712V49.8h9.504v1.76h-3.712V61h-2.08Zm7.353 0V49.8h2.08V61h-2.08Zm10.294.16a6.704 6.704 0 0 1-2.384-.416 5.945 5.945 0 0 1-1.904-1.2 5.602 5.602 0 0 1-1.248-1.84 5.833 5.833 0 0 1-.448-2.304c0-.832.149-1.6.448-2.304a5.327 5.327 0 0 1 1.264-1.824 5.599 5.599 0 0 1 1.904-1.2 6.403 6.403 0 0 1 2.384-.432c.917 0 1.754.16 2.512.48.757.31 1.397.773 1.92 1.392l-1.344 1.264a3.977 3.977 0 0 0-1.36-.976 3.959 3.959 0 0 0-1.632-.336c-.587 0-1.126.096-1.616.288a3.84 3.84 0 0 0-1.264.816c-.352.352-.63.768-.832 1.248a4.228 4.228 0 0 0-.288 1.584c0 .576.096 1.104.288 1.584.202.48.48.896.832 1.248a3.84 3.84 0 0 0 1.264.816c.49.192 1.029.288 1.616.288a4.13 4.13 0 0 0 1.632-.32 4.08 4.08 0 0 0 1.36-1.008l1.344 1.28a5.129 5.129 0 0 1-1.92 1.392c-.758.32-1.6.48-2.528.48Zm4.622-.16 5.04-11.2h2.048l5.056 11.2h-2.176l-4.336-10.096h.832L559.095 61h-2.144Zm2.32-2.592.56-1.632h6.048l.56 1.632h-7.168Zm14.721 2.752a8.52 8.52 0 0 1-2.512-.368c-.8-.256-1.435-.581-1.904-.976l.72-1.616c.448.352 1.002.645 1.664.88a6.029 6.029 0 0 0 2.032.352c.586 0 1.061-.064 1.424-.192.362-.128.629-.299.8-.512.17-.224.256-.475.256-.752 0-.341-.123-.613-.368-.816-.246-.213-.566-.379-.96-.496a13.127 13.127 0 0 0-1.296-.352c-.47-.107-.944-.23-1.424-.368a6.746 6.746 0 0 1-1.296-.56 2.903 2.903 0 0 1-.944-.928c-.246-.384-.368-.875-.368-1.472 0-.608.16-1.163.48-1.664.33-.512.826-.917 1.488-1.216.672-.31 1.52-.464 2.544-.464.672 0 1.338.085 2 .256.661.17 1.237.416 1.728.736l-.656 1.616a5.964 5.964 0 0 0-1.552-.656 5.701 5.701 0 0 0-1.536-.224c-.576 0-1.046.07-1.408.208-.352.139-.614.32-.784.544-.16.224-.24.48-.24.768 0 .341.117.619.352.832.245.203.56.363.944.48.394.117.832.235 1.312.352.48.107.954.23 1.424.368.48.139.912.32 1.296.544.394.224.709.528.944.912.245.384.368.87.368 1.456 0 .597-.166 1.152-.496 1.664-.32.501-.816.907-1.488 1.216-.672.299-1.52.448-2.544.448Z" className="opacity-0 animation-float textoSVG duration-700"/>{/* F. DE VENCIMIENTO */}<path fill="#2D2D2D" d="M464.408 54.952h5.584v1.76h-5.584v-1.76Zm.176 6.048h-2.08V49.8h8.176v1.744h-6.096V61Zm8.399.112c-.362 0-.672-.123-.928-.368a1.302 1.302 0 0 1-.384-.96c0-.405.128-.725.384-.96.256-.245.566-.368.928-.368.363 0 .672.123.928.368.256.235.384.555.384.96 0 .384-.128.704-.384.96a1.292 1.292 0 0 1-.928.368Zm7.88-.112V49.8h4.896c1.216 0 2.283.235 3.2.704.918.47 1.632 1.12 2.144 1.952.512.832.768 1.813.768 2.944 0 1.12-.256 2.101-.768 2.944-.512.832-1.226 1.483-2.144 1.952-.917.47-1.984.704-3.2.704h-4.896Zm2.08-1.76h2.72c.843 0 1.568-.16 2.176-.48a3.395 3.395 0 0 0 1.424-1.344c.342-.576.512-1.248.512-2.016 0-.779-.17-1.45-.512-2.016a3.395 3.395 0 0 0-1.424-1.344c-.608-.32-1.333-.48-2.176-.48h-2.72v7.68Zm13.059-4.784h5.568v1.712h-5.568v-1.712Zm.16 4.8h6.32V61h-8.4V49.8h8.176v1.744h-6.096v7.712ZM512.535 61l-4.896-11.2h2.256l4.368 10.128h-1.296l4.416-10.128h2.08l-4.88 11.2h-2.048Zm10.03-6.544h5.568v1.712h-5.568v-1.712Zm.16 4.8h6.32V61h-8.4V49.8h8.176v1.744h-6.096v7.712ZM531.363 61V49.8h1.712l7.024 8.624h-.848V49.8h2.064V61h-1.712l-7.024-8.624h.848V61h-2.064Zm18.138.16a6.704 6.704 0 0 1-2.384-.416 5.945 5.945 0 0 1-1.904-1.2 5.602 5.602 0 0 1-1.248-1.84 5.833 5.833 0 0 1-.448-2.304c0-.832.149-1.6.448-2.304a5.327 5.327 0 0 1 1.264-1.824 5.599 5.599 0 0 1 1.904-1.2 6.403 6.403 0 0 1 2.384-.432c.917 0 1.754.16 2.512.48.757.31 1.397.773 1.92 1.392l-1.344 1.264a3.977 3.977 0 0 0-1.36-.976 3.959 3.959 0 0 0-1.632-.336c-.587 0-1.126.096-1.616.288a3.84 3.84 0 0 0-1.264.816c-.352.352-.63.768-.832 1.248a4.228 4.228 0 0 0-.288 1.584c0 .576.096 1.104.288 1.584.202.48.48.896.832 1.248a3.84 3.84 0 0 0 1.264.816c.49.192 1.029.288 1.616.288a4.13 4.13 0 0 0 1.632-.32 4.08 4.08 0 0 0 1.36-1.008l1.344 1.28a5.129 5.129 0 0 1-1.92 1.392c-.758.32-1.6.48-2.528.48Zm6.441-.16V49.8h2.08V61h-2.08Zm5.109 0V49.8h1.712l4.896 8.176h-.896l4.816-8.176h1.712l.016 11.2h-1.968l-.016-8.112h.416l-4.096 6.832h-.928l-4.16-6.832h.48V61h-1.984Zm15.281 0V49.8h2.08V61h-2.08Zm7.03-6.544h5.568v1.712h-5.568v-1.712Zm.16 4.8h6.32V61h-8.4V49.8h8.176v1.744h-6.096v7.712ZM592.16 61V49.8h1.712l7.024 8.624h-.848V49.8h2.064V61H600.4l-7.024-8.624h.848V61h-2.064Zm15.225 0v-9.44h-3.712V49.8h9.504v1.76h-3.712V61h-2.08Zm12.445.16c-.875 0-1.68-.144-2.416-.432a5.911 5.911 0 0 1-1.92-1.2 5.555 5.555 0 0 1-1.264-1.824 5.833 5.833 0 0 1-.448-2.304c0-.832.149-1.595.448-2.288a5.34 5.34 0 0 1 1.264-1.824 5.775 5.775 0 0 1 1.92-1.216 6.53 6.53 0 0 1 2.4-.432c.875 0 1.675.144 2.4.432a5.775 5.775 0 0 1 1.92 1.216 5.34 5.34 0 0 1 1.264 1.824c.299.693.448 1.456.448 2.288 0 .832-.149 1.6-.448 2.304a5.34 5.34 0 0 1-1.264 1.824 5.911 5.911 0 0 1-1.92 1.2 6.403 6.403 0 0 1-2.384.432Zm-.016-1.824c.565 0 1.088-.096 1.568-.288.48-.192.896-.464 1.248-.816a4.026 4.026 0 0 0 1.12-2.832 3.91 3.91 0 0 0-.304-1.568 3.671 3.671 0 0 0-.816-1.248 3.56 3.56 0 0 0-1.248-.832 4.185 4.185 0 0 0-1.568-.288c-.565 0-1.088.096-1.568.288-.469.192-.885.47-1.248.832a3.882 3.882 0 0 0-.832 1.248c-.192.47-.288.992-.288 1.568 0 .565.096 1.088.288 1.568.203.48.48.901.832 1.264.352.352.768.624 1.248.816.48.192 1.003.288 1.568.288Z" className="opacity-0 animation-float textoSVG duration-700"/></svg>